<?xml version="1.0" encoding="UTF-8"?>
<svg xmlns="http://www.w3.org/2000/svg" viewBox="0 0 595.28 841.89">
  <defs>
    <style>
      .cls-1 {
        fill: #000;
      }

      .cls-1, .cls-2, .cls-3, .cls-4, .cls-5 {
        stroke-width: 0px;
      }

      .cls-6 {
        font-size: 24px;
        letter-spacing: .18em;
      }

      .cls-6, .cls-7, .cls-8, .cls-9, .cls-4, .cls-10, .cls-11 {
        fill: #fff;
      }

      .cls-12, .cls-13 {
        stroke: #fff;
      }

      .cls-12, .cls-13, .cls-14, .cls-15, .cls-16 {
        fill: none;
        stroke-miterlimit: 10;
      }

      .cls-12, .cls-15, .cls-16 {
        stroke-width: 3px;
      }

      .cls-7 {
        letter-spacing: .17em;
      }

      .cls-7, .cls-17, .cls-8, .cls-18, .cls-19, .cls-9, .cls-20, .cls-11, .cls-21 {
        font-family: DeterminationSansWeb, 'Determination Sans Web';
      }

      .cls-7, .cls-11 {
        font-size: 35px;
      }

      .cls-13 {
        stroke-width: 4.76px;
      }

      .cls-17 {
        fill: #f3e850;
      }

      .cls-17, .cls-20 {
        font-size: 28px;
      }

      .cls-22 {
        fill: #e41f1f;
        letter-spacing: .18em;
      }

      .cls-22, .cls-21 {
        font-size: 27px;
      }

      .cls-2 {
        fill: #e0de28;
      }

      .cls-8 {
        font-size: 73px;
      }

      .cls-19 {
        font-size: 22px;
        letter-spacing: .05em;
      }

      .cls-19, .cls-3 {
        fill: #1d1d1b;
      }

      .cls-9 {
        font-size: 32px;
      }

      .cls-20, .cls-21 {
        fill: #ef8c13;
      }

      .cls-14 {
        stroke: #32a936;
        stroke-width: 1.01px;
      }

      .cls-15 {
        stroke: #ef8c13;
      }

      .cls-16 {
        stroke: #f3e850;
      }

      .cls-10 {
        font-size: 16.54px;
        letter-spacing: .18em;
      }

      .cls-5 {
        fill: #e4201b;
      }
    </style>
  </defs>
  <g id="Livello_1" data-name="Livello 1">
    <rect class="cls-3" x="-8.5" y="-8.5" width="612.28" height="858.9"/>
    <text class="cls-8" transform="translate(24.26 80.31)"><tspan x="0" y="0">DETERMINATION SANS</tspan></text>
    <text class="cls-8" transform="translate(24.26 143.81)"><tspan x="0" y="0">determination sans</tspan></text>
    <text class="cls-18" transform="translate(48.08 836.28)"><tspan class="cls-6" x="0" y="0">You are filled with</tspan><tspan class="cls-10" x="265.99" y="0"> </tspan><tspan class="cls-22" x="272.1" y="0">DETERMINATION.</tspan></text>
    <text class="cls-11" transform="translate(15.45 211.61)"><tspan x="0" y="0">A B C D E F G H I J K L M N O P Q R S T U V W X Y Z</tspan></text>
    <text class="cls-11" transform="translate(15.45 249.93)"><tspan x="0" y="0">a b c d e f g h i j k l m n o p q r s t u v w x y z</tspan></text>
    <text class="cls-7" transform="translate(11.68 290.71)"><tspan x="0" y="0">0 1 2 3 4 5 6 7 8 9 . , ; ? ! ; ( ) /</tspan></text>
    <rect class="cls-13" x="43.21" y="559.84" width="517.66" height="119.44"/>
    <polygon class="cls-5" points="470.47 763.39 471.35 763.39 471.35 762.52 472.19 762.52 472.19 761.64 473.81 761.64 473.81 762.52 475.5 762.52 475.5 763.39 476.36 763.39 476.36 765.11 478.34 765.11 478.34 763.37 479.15 763.37 479.15 762.49 480.89 762.52 480.89 761.64 482.51 761.64 482.51 762.45 483.39 762.45 483.39 763.37 484.22 763.37 484.22 770.11 482.56 770.11 482.56 771.96 480.82 771.96 480.82 773.67 479.04 773.67 479.04 775.43 475.66 775.43 475.66 773.67 473.97 773.67 473.97 772.07 472.25 772.07 472.25 770.2 470.47 770.2 470.47 763.39"/>
    <text class="cls-9" transform="translate(340.29 717.02)"><tspan x="0" y="0">HP</tspan></text>
    <text class="cls-9" transform="translate(434.37 716.6)"><tspan x="0" y="0">20/20</tspan></text>
    <rect class="cls-2" x="378" y="690.09" width="43.91" height="30.64"/>
    <text class="cls-9" transform="translate(121.66 716.41)"><tspan x="0" y="0">RAFFA</tspan></text>
    <text class="cls-9" transform="translate(228.66 716.41)"><tspan x="0" y="0">LV. 1</tspan></text>
    <rect class="cls-14" x="11.68" y="338.43" width="569.2" height="206.04"/>
    <rect class="cls-15" x="50.1" y="749.64" width="89.46" height="37.79"/>
    <rect class="cls-15" x="189.27" y="749.64" width="89.46" height="37.79"/>
    <rect class="cls-15" x="328.45" y="749.64" width="89.46" height="37.79"/>
    <rect class="cls-16" x="464.52" y="749.64" width="89.46" height="37.79"/>
    <text class="cls-20" transform="translate(64.03 776.08)"><tspan x="0" y="0">FIGHT</tspan></text>
    <text class="cls-20" transform="translate(347.74 776.08)"><tspan x="0" y="0">ITEM</tspan></text>
    <text class="cls-17" transform="translate(489.14 776.12)"><tspan x="0" y="0">MERCY</tspan></text>
    <text class="cls-21" transform="translate(216.17 775.8)"><tspan x="0" y="0">ACT</tspan></text>
    <line class="cls-12" x1="71.66" y1="167.36" x2="527.15" y2="167.36"/>
    <line class="cls-12" x1="68.54" y1="323.06" x2="524.03" y2="323.06"/>
    <line class="cls-12" x1="74.08" y1="808.25" x2="529.57" y2="808.25"/>
  </g>
  <g id="Sans">
    <g>
      <path class="cls-1" d="M574.03,530.39H232.99v-191.07h341.04v191.07ZM324.14,438.61c.05-.43.22-.9.12-1.29-.09-.34-.46-.79-.76-.82-.27-.03-.81.38-.86.67-.05.29.3.71.57.97.24.23.62.32.94.47.58,1.23-.53,3.36,1.9,3.62.03,0,.04.1.07.14.72.96,1.4,1.96,2.2,2.85.2.22.9.23,1.2.05.67-.4.19-2.92-.43-3.38-1.01-.75-2.27-1.48-2.78-2.53-.63-1.28-1.22-1.21-2.17-.75ZM318.98,489.23c-.05-2-.06-4.01-.19-6.01-.03-.4-.58-.76-.88-1.13-.28.38-.77.74-.8,1.13-.1,1.44.01,2.9-.08,4.35-.1,1.58.58,2.02,2.01,1.61-.05,3.2-.13,6.4-.13,9.59,0,1.15-.4,1.66-1.57,1.58-.84-.06-1.7-.12-2.52.02-.49.08-.92.54-1.37.83.43.3.85.82,1.3.85,1.45.11,2.92,0,4.38.07,1.2.06,1.57-.45,1.56-1.59-.04-3.09-.08-6.18.01-9.27.04-1.32-.32-2.04-1.71-2.04ZM284.24,502.08c1.38.25,1.79-.42,1.73-1.7-.07-1.4-.05-2.81.02-4.21.02-.44.31-1.2.56-1.23,1.43-.18,1.25-1.2,1.25-2.13,0-1.91.04-3.82-.06-5.72-.02-.46-.49-.9-.75-1.36-.33.48-.89.93-.95,1.44-.14,1.28-.04,2.58-.05,3.87,0,.93.21,1.98-1.26,2.1-.21.02-.52.7-.52,1.08-.01,2.63.05,5.27.08,7.9-4.98.01-9.96.01-14.93.04-.66,0-1.7-.24-1.51.92.06.35.95.8,1.47.81,4.25.07,8.5-.01,12.75.09,1.47.03,2.22-.38,2.17-1.9ZM328.01,471.05c2.76.61,4.19-1.06,5.55-3.07.61-.91,1.46-1.86,2.42-2.26.96-.4,1.13-.86,1.12-1.71-.02-3.14-.02-6.28-.02-9.42,0-.86.07-1.67-1.15-1.86-.28-.04-.68-.9-.61-1.32.34-2.22-1.84-2.68-2.71-4.04-.26-.41-.63-.76-1.01-1.08-.33-.29-.74-.49-1.11-.74-.2.34-.47.66-.6,1.03-.8,2.28,1.4,3.19,2.46,4.14.92.82,1.02,1.45,1.15,2.4.18,1.32-.82,3.18,1.54,3.59.1.02.24.3.21.42-.65,2.28,1.78,5.22-1.48,6.95-.15.08-.15.42-.28.58-.28.35-.62.66-.92.99-.3.33-.59.67-.9.99-.84.88-1.54,2.13-2.57,2.54-1.16.47-1.03,1.1-1.03,1.92-1.4,0-2.8-.03-4.2.05-.43.02-1.06.25-1.22.57-.85,1.77.02,3.03,1.96,3.02.86,0,1.56-.09,1.64-1.19.01-.2.33-.54.52-.56,1.32-.1,1.24-1.04,1.25-1.95ZM311.51,511.18c.23-.57.39-1.17.71-1.69.27-.44.7-.79,1.06-1.18-.51-.23-1.02-.63-1.54-.65-2.58-.07-5.16.02-7.74-.07-.53-.02-1.06-.51-1.56-.83-.41-.26-.78-.59-1.16-.89-.22.46-.59.92-.63,1.39-.07,1.05.18,2.08-1.37,2.45-.34.08-.43,1.67-.4,2.56,0,.28.76.77,1.19.78,2.8.07,5.61.05,8.41.01.38,0,1.09-.29,1.09-.46.04-1.41,1.08-1.35,2-1.49-.24.66-.36,1.8-.76,1.9-1.92.51-.82,1.93-.94,2.91-.03.2,1.07.77,1.65.78,4.48.07,8.96.07,13.44.02,1.26-.01,2.93.66,3.28-1.49.02-.13.43-.15.56-.3.37-.45.84-.91.97-1.44.19-.77-1.58-3.8-2.34-3.9-1.49-.19-2.8-.15-3.81-1.8-.37-.61-2.54-.23-3.86-.08-.38.04-.62.89-1.03,1.26-.29.26-.75.44-1.15.47-1.08.08-2.31-.26-2.54,1.41-.02.18-.65.38-1,.39-.83.03-1.67-.05-2.51-.08ZM293.32,502.1c-.02-3.14,0-6.28-.11-9.42-.02-.49-.6-.95-.92-1.43-.27.46-.76.92-.77,1.39-.08,2.58.01,5.16-.07,7.74-.05,1.47.56,1.94,1.92,1.67-.26,1.33.14,1.94,1.64,1.92,5.5-.07,10.99-.03,16.49-.03.39,0,.84.09,1.16-.07.28-.13.54-.53.59-.85.03-.24-.3-.77-.44-.76-1.67.11-2.83-.44-3.95-1.82-.49-.6-.99-.97-.99-1.78,0-3.2.03-6.39-.03-9.59-.01-.5-.37-1.37-.68-1.43-1.16-.21-1.07-.98-1.07-1.76-.01-2.02-.06-4.04,0-6.06.04-1.31-.69-1.46-1.7-1.42-.95.04-1.95-.18-1.93,1.35.05,4.6,0,9.2.04,13.8,0,.4.36,1.12.63,1.15,1.22.15,1.19.96,1.19,1.84-.01,1.4-.02,2.8,0,4.21,0,.95-.35,1.43-1.39,1.41-3.19-.06-6.39-.05-9.59-.07ZM318.97,445.52c-1.65-.28-2.24.63-1.88,2.02.65,2.51-1.18,3.81-2.52,5.19-1.09,1.12-2.26,2.64-4.29,2.04-.06-.02-.25.11-.26.19-.26,1.88-1.71,1.46-2.93,1.61-.34.04-.63.59-.94.9.29.27.55.75.86.77,1.17.09,2.35.07,3.53,0,.32-.02.85-.34.88-.57.18-1.31,1.11-1.2,2.02-1.2.86,0,1.7.04,1.85-1.18.03-.24.69-.61.99-.56.3.06.69.56.73.89.1,1,0,2.02.07,3.02.03.45.25,1.23.49,1.27,1.56.27,1.34,1.4,1.34,2.45,0,1.29.06,2.58-.02,3.87-.08,1.25.71,2.96-1.49,3.28-.1.02-.16.27-.26.4-.75.95-1.49,1.91-2.28,2.83-.14.17-.52.18-.79.18-4.04.01-8.07.04-12.11-.02-.45,0-1.26-.58-1.25-.87.02-.91.14-2.43.61-2.59,1.24-.44,1.14-1.19,1.09-2.09,1.38.29,1.8-.25,1.92-1.66.13-1.63-.73-1.87-1.92-2.01.02-4.89.07-9.77.02-14.66-.01-1.31.42-1.83,1.75-1.77.6.03,1.72-.22,1.75-.45.22-1.69,1.48-1.43,2.43-1.28,2.63.41,3.76-1.4,5.11-3.07.73-.9,1.69-1.63,2.56-2.42.91-.82,1.92-1.56,2.76-2.45,1.3-1.39,2.09-3.45,4.59-3.11.27.04.85-.44.88-.72.03-.3-.38-.69-.68-.96-.27-.24-.89-.35-.91-.56-.16-1.51-1.31-1.08-2.22-1.37-2.38-.74-3.62,1.09-4.88,2.26-1.21,1.12-2.12,2.6-3.62,3.48-.16.09-.28.37-.3.57-.13,1.31.36,2.93-1.71,3.21-.06,0-.12.19-.12.3-.07,1.36-1.09,1.11-1.96,1.24-.58.08-1.26.27-1.65.66-.85.85-1.53,1.88-2.34,2.77-.17.19-.64.14-.97.15-.95.02-1.91-.02-2.86.04-.36.02-1,.21-1.01.36-.17,1.71-1.43,1.33-2.5,1.46-.46.05-.89.44-1.33.68.32.37.67.71.94,1.11.31.44.8.93.79,1.39-.02.75-.22,2.02-.62,2.14-1.24.36-1.17,1.12-1.17,2.05.02,4.89-.03,9.77.02,14.66.02,1.33-.43,1.78-1.75,1.75-3.2-.07-6.4-.05-9.6,0-1.06.01-1.53-.35-1.5-1.46.05-2.08,0-4.15,0-6.23,0-1.91.04-3.82-.03-5.73-.01-.39-.45-.77-.68-1.15-.36.25-.75.47-1.08.76-.38.32-.74.68-1.07,1.05-.27.29-.62.61-.68.96-.03.21.4.7.67.73,1.15.12,1.13.91,1.09,1.72-.04.84.31,1.86-1.05,2.12-.3.06-.71.6-.7.91,0,.27.53.53.81.81.32.32.86.63.89.99.11,1.17.11,2.36,0,3.53-.03.35-.57.65-.87.97-.31-.37-.83-.7-.9-1.11-.14-.88-.12-1.8-.03-2.69.14-1.54-.56-1.91-1.9-1.51.02-.17.03-.34.06-.5.23-1.32-.74-3.16,1.56-3.64.09-.02.03-1.26,0-1.26-1.96-.1-1.43-1.56-1.6-2.7-.06-.42-.57-.76-.88-1.14-.28.4-.78.79-.8,1.19-.08,1.96.06,3.93-.07,5.88-.09,1.39.32,2.12,1.76,2.13.02,3.03.04,6.06.06,9.08-2.75-.01-5.54-.34-8.22.05-2.4.35-3.31-1.49-4.35-2.6-.75-.8-1.23-1.2-2.17-1.13-1.32.1-1.78-.46-1.74-1.76.07-2.46.05-4.93,0-7.4-.01-.7.33-1.81-.92-1.7-.33.03-.79,1.06-.81,1.64-.08,3.14,0,6.28-.07,9.41,0,.52-.35,1.07-.65,1.54-.28.43-.71.77-1.08,1.15.5.23.98.62,1.5.67,1.01.09,2.04-.13,2.28,1.35.04.24.93.48,1.43.48,4.37.03,8.74-.03,13.11.04,1.4.02,1.81-.54,1.63-1.8,2.35-.01,4.71-.02,7.06-.04.98,0,2.08.24,2.28-1.29.03-.23.82-.51,1.26-.52,2.75-.04,5.5-.04,8.24.01.43,0,1.19.33,1.21.57.17,1.47,1.2,1.23,2.13,1.23,4.82,0,9.64-.02,14.47.04.59,0,1.54.36,1.71.79.64,1.6,1.9.89,2.87.85.3-.01.57-1.06.83-1.64.27-.6.38-1.64.77-1.75,1.09-.31,1.05-1.01,1.05-1.8,0-3.59,0-7.18,0-10.77,0-.98.25-2.07-1.27-2.28-.24-.03-.52-.82-.52-1.26-.02-3.81.03-7.62.05-11.44.27,0,.62.1.81-.03.35-.23.61-.6.9-.92-.28-.26-.57-.53-.85-.79-.29.32-.65.61-.86.98-.11.19.03.53.05.8ZM353.7,435.57c-.01.22-.03.44-.04.67,1.22.64,2.38,1.45,3.67,1.9,2.24.78,4.74,1,6.8,2.09,2.94,1.56,6.19,1.48,9.23,2.44,2.04.65,3.06,1.35,3.06,3.55,0,8.54-.1,17.08.06,25.61.06,3.39-.71,6.82.75,10.22.69,1.6.14,3.6.89,5.47.7,1.76,1.28,3.42,2.66,4.78,1.31,1.29,2.5,2.43,4.49,2.84,1.98.41,3.78,1.51,5.94,1.51,30.72-.03,61.44-.02,92.17-.02,22.41,0,44.82,0,67.23-.01.65,0,1.34-.06,1.95-.28,1.27-.45,2.47-1.32,3.76-1.46,2.17-.23,3.47-1.8,5.02-2.88,1.24-.86,2.23-2.33,2.85-3.75.83-1.86,2.24-3.47,2.24-5.74-.05-20.28-.15-40.55.07-60.83.04-3.69-1.29-6.57-3.41-8.97-1.99-2.25-3.56-5.31-7.22-5.76-2.28-.28-4.49-1.56-6.73-1.56-48.02-.09-96.04-.11-144.06,0-5.97.01-11.98-.89-17.96.72-2.17.58-4.17,1.08-5.54,2.82-1.06,1.35-1.83,2.94-2.68,4.45-1.46,2.59-2.62,5.26-2.47,8.34.08,1.62.14,3.27-.04,4.88-.09.78-.58,1.91-1.19,2.16-2.09.88-4.3,1.48-6.48,2.1-1.56.45-3.17.71-4.74,1.15-1.71.48-3.39,1.08-5.09,1.62-.97.31-1.96.57-2.92.92-.77.28-1.51.65-2.26.99ZM317,408.91h0c0-1.63.05-3.26-.03-4.88-.02-.47-.34-1.27-.63-1.33-1.32-.24-1.07-1.18-1.19-2.05-.08-.58-.39-1.15-.72-1.65-.3-.45-.75-.8-1.13-1.19-.83-.83-1.65-1.68-2.5-2.49-1.18-1.11-2.28-2.42-4.21-1.98-.09.02-.34-.19-.35-.32-.23-1.94-1.72-1.29-2.84-1.41-1.16-.13-2.71.62-3.02-1.42-.03-.17-.66-.37-1.01-.37-6.45-.02-12.91-.02-19.36,0-.4,0-1.12.23-1.14.42-.21,1.72-1.48,1.3-2.54,1.38-1.27.1-2.92-.65-3.34,1.47-.03.17-.59.37-.87.34-2.44-.31-3.17,1.75-4.45,3.09-.85.89-1.87,1.6-2.76,2.45-.35.33-.71.81-.76,1.27-.13,1.08.2,2.31-1.45,2.55-.18.03-.39.64-.39.99-.03,3.42-.04,6.85.01,10.27,0,.41.34,1.13.62,1.17,1.17.21,1.22.96,1.18,1.86-.04.91-.12,1.73,1.18,2.01.9.19,1.01,3.28.14,3.44-1.61.31-1.32,1.39-1.33,2.41-.01,1.23-.05,2.47.03,3.7.03.43.33,1.17.59,1.2,1.31.17,1.24,1.08,1.23,1.99-.01.86-.01,1.48,1.1,1.92.97.38,2.04,1.34,2.37,2.29.46,1.3,1.25,1.13,2.18,1.26.56.07,1.09.46,1.61.75.55.31,1.04.85,1.61.97.87.17,1.79,0,2.68.08.38.04,1.04.31,1.06.54.16,1.44,1.18,1.26,2.12,1.26,5.89,0,11.79,0,17.68,0,1.04,0,2.2.27,2.42-1.33.03-.21.73-.44,1.13-.47.95-.07,1.92.05,2.86-.06.46-.06,1.19-.42,1.25-.74.2-1.03.84-1.03,1.61-1.02,1,.01,1.86.1,2.3-1.31.28-.9,1.33-1.89,2.25-2.18,1.24-.4,1.12-1.13,1.23-2.02.07-.6.29-1.6.61-1.67,1.28-.28,1.2-1.13,1.19-2.05,0-1.23-.01-2.47,0-3.7,0-.82,0-1.48-1.08-1.77-.38-.1-.7-1.14-.7-1.74,0-.6.34-1.63.72-1.73,1.1-.28,1.02-.97,1.09-1.77.06-.63.21-1.72.48-1.77,1.57-.3,1.33-1.4,1.33-2.44,0-1.4,0-2.81,0-4.21ZM284.18,460.01c0,2.52.04,5.04-.02,7.56-.03,1.18.29,1.76,1.6,1.7,1.96-.08,3.92-.07,5.88,0,1.24.05,1.66-.39,1.64-1.65-.07-3.86.02-7.73-.04-11.6-.02-1.3.74-3.05-1.51-3.43-.08-.01-.19-.16-.2-.25-.13-1.62-1.32-1.34-2.36-1.34-1.06,0-2.13.07-3.19,0-1.36-.11-1.91.35-1.85,1.79.1,2.4.03,4.82.03,7.23ZM273.21,450.12c0,.84-.06,1.69.01,2.52.14,1.49-.35,2.19-1.97,2.05-1.39-.12-2.81-.09-4.2.03-.39.03-.73.6-1.1.92.33.27.66.77,1,.78,2.35.07,4.71.06,7.07,0,.33,0,.89-.41.92-.67.11-1.29.99-1.16,1.83-1.13.79.03,1.73-.29,1.98.99.06.32.65.55,1,.82.24-.38.65-.75.67-1.14.08-1.51.04-3.03.03-4.54,0-.81-.03-1.59,1.13-1.68.25-.02.62-.5.64-.78.02-.3-.32-.88-.51-.88-.92-.04-1.23-.48-1.37-1.33-.04-.24-.69-.49-1.07-.53-1.12-.1-2.47.32-2.65-1.49-.01-.13-.46-.31-.71-.32-1.28-.07-2.27.01-3.2-1.54-.78-1.29-2.52-2.17-3.42-3.65-.09-.16-.38-.27-.58-.28-1.35-.05-2.43.05-3.36-1.62-.72-1.3-2.58-2.05-3.4-3.59-.07-.12-.27-.24-.41-.25-1.29-.04-2.59-.17-3.86,0-.42.06-.71.94-1.11,1.4-.17.19-.46.29-.72.37-1.61.46-.76,1.77-.81,2.68-.01.28.86.71,1.4.88.46.15,1,.02,1.5.03,1.13.02,2.44-.36,2.72,1.42.03.19.75.37,1.15.4.95.06,1.91-.03,2.86.05.39.03.87.23,1.13.52.8.92,1.49,1.94,2.28,2.87.14.17.51.2.78.22,1.17.07,2.59-.35,2.79,1.51.01.1.26.24.4.25,1.21.1,1.19.95,1.18,1.83-.02.95,0,1.91,0,2.86ZM262.07,516.75s0,.02,0,.03c2.58,0,5.17.04,7.75-.03.5-.01.99-.46,1.49-.71-.33-.36-.64-.73-.99-1.08-.22-.22-.69-.4-.7-.61-.03-1.54-.25-2.73-1.76-3.81-.66-.48-1.12-.99-2-1.08-.6-.06-1.63-.3-1.69-.6-.25-1.32-1.13-1.2-2.03-1.2-1.18,0-2.36,0-3.54,0-.92,0-1.56,0-2,1.2-.37.98-1.64,1.61-2.46,2.45-.4.41-.88.91-.98,1.43-.16.87,0,1.79-.06,2.69-.07,1.04.38,1.38,1.38,1.36,2.53-.04,5.05-.01,7.58-.01ZM264.08,495.67h0c0,.9-.08,1.8.02,2.69.16,1.57-.48,2.01-2.01,2.02-1.56.01-1.76-.71-1.72-1.96.06-1.96.06-3.93-.04-5.89-.02-.44-.56-.86-.86-1.29-.29.44-.81.88-.82,1.33-.08,2.69-.01,5.39-.05,8.08-.02,1.1.42,1.49,1.5,1.46,2.02-.06,4.04-.07,6.06,0,1.17.04,1.6-.34,1.56-1.53-.07-2.58-.04-5.16,0-7.74,0-.51.2-1.44.42-1.47,1.82-.28,1.34-1.63,1.38-2.72.04-1.12-.09-2.26.06-3.36.07-.52.52-1.18.99-1.41,1.38-.7.84-1.91.71-2.81-.21-1.4-1.52-.72-2.37-.79-1.16-.1-1.09.8-1.17,1.61-.06.63-.19,1.73-.46,1.78-1.67.34-1.32,1.55-1.33,2.62-.02,1.23.05,2.47-.04,3.7-.03.41-.38,1.09-.66,1.13-1.25.16-1.15,1.01-1.15,1.86,0,.9,0,1.8,0,2.69ZM245.77,457.48c0-1.23.04-2.47-.03-3.7-.02-.3-.33-.76-.59-.84-.28-.08-.94.18-.96.36-.19,1.53-.38,2.82-1.84,3.98-.68.53-.44,2.76,0,4.01.33.98,1.58,1.67,2.45,2.45.91.82,1.88,1.56,2.77,2.4,1.09,1.03,2.15,2.1,3.18,3.2.84.89,1.59,1.85,2.41,2.76.26.29.61.51.92.76.27-.35.74-.68.78-1.06.11-1,.01-2.02.04-3.03.03-.93-.42-1.49-1.3-1.27-2.25.57-2.69-1.72-4.05-2.53-1.03-.62-1.49-2.3-2.53-2.77-1.21-.55-1.24-1.22-1.22-2.19.01-.84,0-1.68,0-2.52ZM289.55,449.14c.45,0,.9,0,1.34,0,2.24,0,2.17,0,2.41-2.24.06-.52.84-.93,1.09-1.48.3-.67.38-1.44.55-2.16-.56,0-1.13-.09-1.67,0-.52.07-1.02.43-1.54.45-2.01.05-4.03.05-6.04,0-.52-.01-1.03-.28-1.54-.42-.45-.13-1.15-.49-1.29-.33-.32.35-.5.96-.47,1.45.02.37.42.76.72,1.07.31.32.74.52,1.04.85.82.89,1.58,1.84,2.41,2.72.15.15.53.1.81.11.73.01,1.45,0,2.18,0ZM260.42,452.8h0c0,2.07-.03,4.14.03,6.21,0,.35.32.77.62.99.16.12.84-.1.86-.22.28-1.96,1.81-1.33,2.97-1.58.36-.08.89-1.18.76-1.33-.68-.81-1.44-1.74-2.37-2.09-1.01-.38-1.09-.94-1.09-1.75,0-1.96.02-3.92,0-5.88,0-.68.22-1.69-.93-1.51-.35.05-.79.93-.82,1.45-.1,1.9-.04,3.81-.04,5.71ZM271.48,507.64c-.78,0-1.58-.08-2.34.03-.47.07-.89.43-1.34.67.34.37.69.75,1.03,1.12.24.27.47.55.72.8.34.35.71.68,1.06,1.02.26.25.66.48.74.78.42,1.77,1.81.96,2.75.91.33-.02.86-1.12.86-1.73.02-4.14.6-3.54-3.47-3.61ZM302.41,514.98s0,0,0,.01c-1.45,0-2.91-.05-4.36.04-.36.02-.69.51-1.04.78.36.31.71.88,1.08.89,2.85.08,5.7.09,8.55.03.41,0,.8-.51,1.2-.78-.36-.32-.69-.89-1.07-.92-1.45-.11-2.9-.04-4.36-.04ZM260.43,486.83s-.01,0-.02,0c0,1.06-.08,2.13.04,3.18.05.4.53.76.82,1.14.31-.37.86-.73.88-1.11.08-2.29.07-4.58,0-6.86-.01-.36-.47-.71-.72-1.06-.34.35-.92.67-.96,1.05-.12,1.22-.05,2.45-.05,3.68ZM291.43,488.63s-.02,0-.04,0c0-.72.09-1.46-.04-2.15-.06-.29-.56-.62-.91-.68-.21-.04-.71.41-.72.65-.07,1.33-.08,2.66.01,3.99.02.26.6.66.91.65.27,0,.67-.47.75-.79.13-.52.03-1.1.03-1.66ZM306.05,461.06s.01,0,.02,0c0-.56.1-1.14-.03-1.66-.1-.39-.5-.7-.76-1.04-.32.3-.89.58-.92.9-.11,1.21-.1,2.45,0,3.67.02.29.55.76.82.74.31-.02.76-.45.84-.78.14-.58.04-1.22.04-1.83ZM274.98,514.41c-.75.65-1.23,1.08-1.72,1.51.56.29,1.13.81,1.69.8.61-.02,1.21-.52,1.82-.82-.5-.42-1-.84-1.78-1.49ZM245.33,451.08c.59.71,1,1.2,1.41,1.7.29-.62.73-1.21.81-1.85.08-.64.41-1.81-.86-1.64-.45.06-.78,1-1.36,1.79ZM317.44,480.26c-.51-.72-.89-1.26-1.27-1.8-.31.54-.82,1.05-.88,1.61-.08.71-.44,1.9.9,1.82.39-.02.72-.91,1.25-1.63ZM253.48,444.72c-.59-.49-.93-.97-1.16-.92-.38.08-.77.46-.96.82-.07.13.42.79.66.8.37.01.75-.34,1.46-.7ZM248.64,446.89c-.47.7-.87,1.04-.89,1.41-.02.25.49.54.77.8.3-.31.72-.59.84-.96.07-.23-.32-.61-.72-1.26Z"/>
      <path class="cls-4" d="M353.7,435.57c.75-.33,1.49-.71,2.26-.99.96-.35,1.95-.61,2.92-.92,1.7-.54,3.38-1.14,5.09-1.62,1.56-.44,3.17-.71,4.74-1.15,2.19-.62,4.39-1.23,6.48-2.1.61-.25,1.1-1.38,1.19-2.16.18-1.61.12-3.25.04-4.88-.15-3.08,1.01-5.76,2.47-8.34.85-1.51,1.62-3.1,2.68-4.45,1.37-1.75,3.37-2.24,5.54-2.82,5.99-1.62,12-.71,17.96-.72,48.02-.12,96.04-.1,144.06,0,2.24,0,4.46,1.28,6.73,1.56,3.66.45,5.22,3.51,7.22,5.76,2.12,2.39,3.45,5.28,3.41,8.97-.22,20.27-.12,40.55-.07,60.83,0,2.27-1.41,3.88-2.24,5.74-.63,1.41-1.62,2.89-2.85,3.75-1.55,1.08-2.85,2.66-5.02,2.88-1.29.13-2.48,1.01-3.76,1.46-.61.21-1.3.28-1.95.28-22.41.01-44.82.01-67.23.01-30.72,0-61.44,0-92.17.02-2.16,0-3.96-1.11-5.94-1.51-1.99-.41-3.19-1.55-4.49-2.84-1.38-1.36-1.96-3.02-2.66-4.78-.75-1.87-.2-3.87-.89-5.47-1.46-3.4-.68-6.83-.75-10.22-.16-8.53-.06-17.07-.06-25.61,0-2.21-1.02-2.91-3.06-3.55-3.04-.96-6.29-.89-9.23-2.44-2.06-1.09-4.56-1.31-6.8-2.09-1.29-.45-2.45-1.25-3.67-1.9.01-.22.03-.44.04-.67ZM465.17,461.44c.21.01.42.02.63.03.04.64-.04,1.31.14,1.91.14.48.59.87.91,1.3.31-.44.82-.85.89-1.32.14-.93.04-1.89.04-2.84.29,0,.59,0,.88,0,0,1-.09,2.01.04,2.99.05.41.56.77.86,1.15.32-.36.88-.71.91-1.1.11-1.33.14-2.69-.01-4.02-.05-.46-.66-1.07-1.14-1.22-1.76-.56-3.56.88-5.38.04-.08-.04-.71.66-.73,1.04-.09,1.39-.1,2.8.01,4.19.03.38.61.72.94,1.08.29-.34.74-.64.83-1.02.17-.71.13-1.48.17-2.22ZM407.49,442.24c.25,0,.5,0,.75,0,.05,1.07.03,2.16.18,3.21.05.36.56.65.86.98.32-.32.85-.6.91-.96.13-.88.04-1.79.05-2.69.02-2.81.02-2.79-2.86-2.79-1.22,0-2.42,1.02-3.65.06-.28.4-.77.78-.8,1.2-.11,1.28-.13,2.59,0,3.87.04.46.58.87.9,1.3.31-.44.75-.83.91-1.32.21-.65.19-1.37.27-2.06.18.02.35.03.53.05.03.65-.04,1.33.12,1.95.13.49.54.92.82,1.37.34-.46.9-.88.99-1.39.16-.91.05-1.86.05-2.79ZM506.16,442.3c.28,0,.56.02.83.03,0,.7-.04,1.4.01,2.09.06.76-.41,1.94.88,1.97,1.45.03.88-1.25.99-2.04.06-.38,0-.78,0-1.17,0-3.41-.09-3.52-3.46-3.14-.96.11-1.89.9-2.85.01-.34.39-.94.76-.98,1.19-.13,1.27-.13,2.58-.01,3.85.04.47.55.89.85,1.33.32-.42.77-.81.91-1.28.2-.66.17-1.39.25-2.09.18,0,.36.01.55.02.04.68-.02,1.39.16,2.04.14.49.58.89.88,1.33.33-.42.86-.8.93-1.26.15-.93.04-1.91.04-2.86ZM460.47,478.71c.3,0,.6,0,.9.01,0,1.03-.09,2.06.04,3.07.05.4.57.74.88,1.11.31-.38.84-.74.88-1.14.12-1.28.03-2.58.07-3.86.03-1.02-.47-1.21-1.4-1.42-1.71-.38-3.33,1.17-5.04.1-.08-.05-.84.58-.87.92-.11,1.45-.12,2.92-.01,4.36.03.37.63.69.98,1.04.28-.35.72-.65.81-1.04.17-.71.14-1.47.19-2.21.17,0,.34-.01.51-.02.08.72.07,1.46.28,2.14.13.43.59.76.9,1.13.3-.38.8-.73.85-1.14.12-1.01.04-2.04.04-3.06ZM490.57,463.34s.02,0,.03,0c0,1.34-.06,2.69.04,4.03.03.34.57.64.88.96.31-.32.77-.58.89-.96.16-.51-.03-1.13.1-1.66.09-.36.41-.82.72-.93,2.92-.94,2.93-.92,2.89-3.82-.03-2.04-.79-2.7-3.11-2.69q-2.44.01-2.45,2.54c0,.84,0,1.68,0,2.52ZM545.42,423.65c0-1.07.1-2.15-.04-3.19-.07-.51-.61-.96-.94-1.44-.29.45-.57.91-.88,1.35-.33.46-.67,1.28-1.03,1.3-1.86.08-2.9,1.28-3.43,2.73-.57,1.55-.03,3.01,1.82,3.36,1.33.25,2.73.34,4.06.18.24-.03.34-1.58.44-2.43.07-.61.01-1.23.01-1.85ZM438.52,426.88s-.01,0-.02,0c0,1.35-.06,2.7.04,4.03.03.33.57.76.94.85.21.05.71-.45.82-.79.15-.46-.09-1.06.1-1.49.22-.49.71-1.22,1.1-1.23,1.27-.03,2.24-.65,2.37-1.7.18-1.4.75-3.05-.67-4.24-.32-.27-.76-.49-1.17-.54-.78-.09-1.61-.18-2.34.02-.47.13-1.08.75-1.13,1.2-.15,1.27-.05,2.57-.05,3.86ZM523.67,428.04c.26.02.52.05.78.07.6-1.63,1.26-3.23,1.74-4.9.11-.37-.47-.93-.73-1.4-.36.44-.85.83-1.03,1.33-.22.61-.17,1.32-.23,1.98-.19-.01-.38-.03-.57-.04-.05-.81-.02-1.63-.18-2.42-.06-.33-.57-.86-.76-.81-.38.08-.81.45-.99.81-.21.44-.17,1-.24,1.51-.15,0-.3,0-.44.01-.08-.39-.08-.81-.27-1.14-.25-.45-.64-.83-.96-1.24-.29.44-.87.92-.83,1.33.16,1.63.52,3.24.81,4.86.22.03.45.07.67.1.59-.77,1.19-1.55,1.73-2.26.5.73,1.01,1.47,1.52,2.22ZM422.98,460.27c0,1.27-.09,2.32.05,3.35.05.38.63.69.97,1.04.28-.34.76-.67.8-1.04.11-.99.04-2.01.03-3.02-.01-1.4-.77-2.21-2.12-2.29-1.01-.06-1.54-.29-1.54-1.45,0-.43-.58-.86-.9-1.29-.31.48-.87.94-.9,1.43-.1,2.07-.1,4.14,0,6.21.03.5.59.96.91,1.44.3-.5.84-.98.87-1.49.07-1.16.08-2.25,1.82-2.9ZM505.18,423.67c0,1.23-.08,2.27.04,3.29.05.42.54.8.83,1.19.33-.35.9-.68.95-1.07.13-1.11.13-2.25.01-3.36-.13-1.17-.83-1.97-2.1-1.95-1.05.02-1.52-.33-1.56-1.45-.02-.44-.58-.86-.89-1.29-.3.44-.85.86-.87,1.31-.1,1.96-.08,3.93-.02,5.89.02.73-.43,1.94.94,1.83.34-.03.81-1.13.83-1.75.04-1.18.39-2.02,1.84-2.64ZM531.18,443.35c-.44-.81-.83-1.59-1.29-2.32-.23-.37-.55-.73-.92-.94-.15-.09-.77.23-.78.39-.02.45.07.96.27,1.36.96,1.94,2.36,3.77.6,6.05-.29.38-.01,1.76.41,2.02.93.57,1.15-.3,1.48-1.11,1.02-2.49,2.26-4.89,3.34-7.35.15-.33-.08-.82-.13-1.24-.5.07-1.25-.04-1.46.24-.6.84-.99,1.84-1.52,2.88ZM432.89,463.21c-.54-.28-.98-.51-1.92-.99,1.97-.13,2.54-1.12,2-2.26-.35-.74-1.42-1.56-2.17-1.57-.8-.01-1.71.78-2.39,1.42-1.29,1.21-1.23,3.31,0,4.36,1.27,1.09,3.29.7,4.48-.96ZM458.85,444.27c1.37-.45,1.93-1.2,1.59-2.47-.32-1.23-1.2-2.02-2.45-1.7-.83.21-1.84.81-2.2,1.52-.51.99-.76,2.3-.6,3.39.08.57,1.22,1.23,1.99,1.4,1.27.28,2.57.09,3.14-1.55-.5-.2-.98-.39-1.46-.58ZM522,462.59c1.43-.48,1.78-1.42,1.48-2.58-.3-1.11-1.15-1.95-2.32-1.67-.87.21-1.64.96-2.4,1.53-1.22.92-.92,2.3-.57,3.39.21.64,1.26,1.23,2.03,1.4,1.27.27,2.57.08,3.15-1.54-.48-.19-.92-.36-1.36-.53ZM389.23,443.72c-.01-2.77-.57-3.69-2.26-3.71-1.54-.02-3.27,1.86-3.28,3.57,0,2.28.7,2.9,3.28,2.89q2.27-.01,2.25-2.74ZM476.81,462.39c1.48-.4,2.46-1.11,1.85-2.37-.37-.75-1.4-1.65-2.12-1.64-.87.02-1.75.89-2.56,1.48-1.24.9-.91,2.29-.57,3.36.2.64,1.24,1.23,2,1.42,1.28.32,2.56.11,3.14-1.5-.49-.21-.96-.42-1.75-.76ZM533.81,425.99c1.12-.49,2.05-1.06,1.54-2.26-.33-.79-1.15-1.61-1.94-1.91-1.34-.51-2,.8-2.86,1.56-1.16,1.03-.83,2.36-.47,3.4.23.65,1.37,1.17,2.2,1.38,1.24.31,2.39-.04,2.91-1.51-.51-.24-.94-.44-1.37-.65ZM434.75,425.18c.42-1.71-.04-2.87-1.55-3.38-1.14-.39-3.37,1.12-3.76,2.42-.42,1.4.2,3.31,1.27,3.84,1.23.62,3.08,0,4.01-1.39-.48-.26-.96-.51-1.7-.91.8-.26,1.26-.41,1.73-.57ZM398.39,424.95s0,0-.01,0c0-.67.11-1.37-.04-2.01-.1-.43-.57-.77-.88-1.15-.32.36-.83.69-.93,1.1-.16.69.05,1.47-.09,2.17-.09.43-.53.8-.82,1.19-.3-.38-.78-.73-.86-1.15-.15-.82-.01-1.68-.12-2.51-.04-.29-.42-.69-.7-.75-.3-.06-.96.23-.96.36.01,1.65-.1,3.34.28,4.92.24,1.02,3.19,1.68,4.35.94.55-.35.54-1.6.76-2.44.05-.21,0-.45,0-.67ZM430.34,478.53l.84.22c0,.59-.1,1.2.02,1.76.19.84-.71,2.4.95,2.34,1.57-.05.67-1.57.91-2.43.06-.21-.01-.45.01-.67.13-1.18,0-2.49-1.16-2.87-1.2-.39-2.6-.22-3.9-.19-.15,0-.38.62-.4.97-.06,1.11-.1,2.24-.04,3.35.04.75-.39,1.94.96,1.83.35-.03.64-1.13.9-1.76.34-.84.61-1.7.92-2.56ZM442.2,479.7h0c0-.73.1-1.48-.04-2.18-.08-.37-.59-.65-.9-.97-.31.32-.81.61-.87.98-.14.76.04,1.58-.1,2.34-.08.43-.52.8-.8,1.2-.31-.43-.78-.82-.89-1.29-.16-.69.05-1.47-.09-2.17-.07-.39-.52-.71-.79-1.06-.34.36-.92.68-.97,1.07-.13,1.16-.21,2.38.01,3.51.13.65.79,1.43,1.41,1.69,2.49,1.03,4.03-.03,4.04-2.63,0-.17,0-.34,0-.5ZM505.22,461.89c.02-2.54-.59-3.56-2.15-3.62-1.6-.05-3.3,1.82-3.32,3.66-.02,2.09.65,2.75,2.83,2.77q2.62.02,2.64-2.81ZM418.44,443.79c-.01-2.9-.58-3.81-2.34-3.78-1.48.03-3.18,1.99-3.17,3.66.01,2.24.7,2.79,3.53,2.78q1.99,0,1.98-2.66ZM478.75,443.77c0-2.85-.6-3.79-2.38-3.76-1.48.02-3.14,1.97-3.14,3.68,0,2.13.72,2.75,3.22,2.75q2.29,0,2.29-2.68ZM517.12,443.64c0-2.77-.54-3.61-2.33-3.61-1.55,0-3.16,1.84-3.17,3.63,0,2.19.67,2.78,3.18,2.78q2.32,0,2.32-2.8ZM486.03,442.03c0,1.23-.07,2.32.04,3.39.04.35.56.66.86.98.31-.32.79-.6.88-.97.15-.64.04-1.33.06-2,.04-1.18.2-2.62-1.11-3.05-1.2-.4-2.6-.24-3.91-.21-.17,0-.45.71-.47,1.1-.07,1.17-.13,2.36.01,3.52.07.57.59,1.08.91,1.61.31-.55.85-1.08.89-1.65.07-1.17.14-2.21,1.83-2.72ZM405.62,478.53c0,1.3-.06,2.41.04,3.5.03.32.45.74.77.84.26.07.92-.28.92-.45,0-1.59,0-3.2-.23-4.77-.09-.64-4.14-1.43-4.67-.94-.27.25-.39.78-.41,1.19-.06,1.23-.1,2.47,0,3.69.04.47.52.9.8,1.35.33-.46.91-.91.94-1.39.07-1.21.05-2.35,1.84-3ZM451.36,479.76s0,0,0,0c0-.67.11-1.37-.04-2.01-.1-.44-.56-.8-.85-1.19-.33.42-.83.79-.94,1.26-.17.69.05,1.47-.11,2.16-.1.41-.6.73-.93,1.09-.27-.36-.7-.69-.76-1.08-.12-.82,0-1.68-.09-2.51-.04-.32-.33-.78-.6-.87-.28-.09-.8.1-1.01.35-.6.7-.22,5.06.6,5.34,1.3.43,2.75.5,4.13.46.22,0,.41-1.4.58-2.17.06-.27,0-.56,0-.84ZM393.67,460.32c.28.05.56.1.85.14.05.75.09,1.51.16,2.26.07.77-.34,1.94.96,1.91,1.32-.03.77-1.23.88-1.97.06-.38-.01-.78.01-1.17.09-1.15.1-2.49-1.13-2.86-1.22-.37-2.62-.2-3.93-.15-.16,0-.4.73-.42,1.14-.06,1.17-.11,2.36.02,3.52.06.53.54,1.01.84,1.52.32-.53.73-1.02.95-1.59.34-.89.56-1.83.82-2.75ZM515.32,424.51c-.02-2.12-1.76-3.47-3.29-2.59-.79.46-1.77,1.17-1.97,1.95-.27,1.06-.1,2.37.29,3.42.41,1.1,1.75,1.29,2.57.73,1.22-.83,2.73-1.71,2.39-3.51ZM389.23,423.98c-.06-.15-.12-.99-.55-1.28-.71-.48-1.97-1.1-2.44-.79-1.03.67-2.2,1.76-2.45,2.88-.63,2.75,1.37,3.76,2.97,3.34,1.14-.3,2.49-2.35,2.48-4.15ZM398.37,479.34c-.01-1.88-.75-2.78-2.3-2.8-1.54-.01-3.26,1.95-3.25,3.7.02,1.84.8,2.73,2.39,2.71,1.49-.03,3.17-1.95,3.16-3.61ZM497.19,442.88c-.22-.66-.31-1.41-.68-1.96-.76-1.13-2.16-1.26-3.19-.44-1.88,1.49-2.61,3.82-1.37,4.95.63.58,1.74.93,2.61.89,1.07-.05,2.45-2.25,2.62-3.44ZM453.16,424.54c0-1.9-.74-2.78-2.33-2.79-1.5,0-3.19,1.92-3.18,3.63,0,1.84.81,2.8,2.34,2.79,1.5,0,3.18-1.93,3.18-3.63ZM389.22,480.87h-3.36c0-.46-.15-1.01.05-1.36.78-1.37,1.87-1.28,3.02-.28.76-1.46-.33-2.13-1.07-2.51-1.7-.85-2.65.56-3.62,1.62-.77.84-.75,2.85-.06,3.72,1.03,1.31,2.47,1.09,3.69.71.81-.26,1.79-1.04,1.35-1.9ZM514.34,462.58h-3.36c.02-.46-.13-1.02.08-1.36.8-1.32,1.91-1.2,3.03-.28.73-1.46-.28-2.14-1.1-2.49-1.77-.78-3.02.52-3.65,1.8-.47.95-.38,2.52.08,3.52.69,1.48,2.36,1.15,3.58.74.84-.28,1.78-1.06,1.33-1.92ZM451.4,459.28c-.14-.29-.21-.7-.37-.74-.96-.22-1.56-.73-1.7-1.73-.54.09-1.15.06-1.6.31-.49.27-.86.78-1.25,1.21-.24.26-.59.57-.6.86,0,.29.34.84.55.85,1.35.09,1.23,1.03,1.23,1.93,0,.61-.08,1.25.06,1.83.08.33.52.78.81.8.3.02.72-.38.92-.7.16-.24.05-.65.07-.98.1-1.17-.52-2.68,1.44-2.97.17-.02.28-.42.43-.67ZM413.61,483.05c.22,0,.44,0,.66,0,.18-.63.4-1.25.53-1.9.22-1.07-.61-2.47,1.34-2.92.78-.18.69-1.12-.16-1.66-.45-.28-.77-.77-1.19-1.1-.35-.28-1.01-.74-1.11-.65-.9.81-1.73,1.71-2.5,2.64-.06.07.41.85.69.89,1.14.16,1.09.92,1.08,1.73-.01.62-.07,1.25.04,1.84.08.4.42.75.64,1.13ZM468.73,419.84c-.32.18-.72.27-.76.45-.24.94-.71,1.57-1.74,1.64.11.54.16,1.54.33,1.56,1.23.14,1.19.94,1.17,1.82-.02.67-.09,1.37.08,1.99.09.35.6.72.98.8.21.04.65-.47.77-.81.14-.4.02-.88.05-1.33.08-1.02-.41-2.36,1.36-2.51.17-.01.49-.68.42-.77-.84-.97-1.74-1.89-2.66-2.85ZM484.85,462.29c0,.13-.01.26-.02.39-.56.06-1.13.04-1.66.2-.3.09-.68.45-.72.73-.04.29.26.91.43.92.98.06,2.09.26,2.92-.12,1.49-.68,1.49-1.95.16-3-.43-.34-.97-.53-1.67-.9.44-.18.62-.29.82-.33.74-.16,1.98.27,1.72-1.07-.07-.39-1.28-.57-1.98-.83-.15-.05-.38-.08-.49,0-.68.51-1.58.93-1.89,1.62-.17.39.6,1.29,1.08,1.83.28.31.84.38,1.28.56ZM424.22,442.02c.52-.06,1.05-.05,1.54-.2.32-.1.74-.38.81-.65.07-.29-.23-.98-.34-.98-1.11.07-2.33,0-3.3.44-1.14.52-1.19,1.55-.09,2.38.56.42,1.18.77,2.08,1.35-.81.1-1.28.05-1.66.22-.43.19-.77.57-1.15.86.36.33.67.87,1.08.95,1.4.27,2.91.1,3.34-1.44.46-1.63-1.12-2-2.31-2.94ZM411.76,464.8l.64.02c.19-.57.43-1.13.56-1.71.24-1.16-.7-2.82,1.43-3.17.17-.03.45-.84.33-.96-.83-.88-1.72-1.7-2.65-2.46-.09-.08-.62.3-.89.53-.44.4-.85.84-1.25,1.28-.24.26-.63.6-.59.85.05.34.45.62.68.94.37.51.86.98,1.03,1.55.18.62-.03,1.34.08,1.99.07.4.41.76.63,1.14ZM476.81,423.93c.73-.17,1.07-.19,1.34-.33.51-.27.98-.61,1.47-.92-.54-.31-1.07-.66-1.63-.92-.23-.11-.62-.12-.82,0-.71.46-1.69.87-1.92,1.54-.17.47.64,1.36,1.14,1.95.23.27.77.29,1.37.49-.37.25-.53.41-.72.47-.76.23-2.13-.29-1.85,1.17.08.39,1.42.55,2.19.78.2.06.51.06.65-.05.55-.45,1.29-.87,1.48-1.46.14-.44-.37-1.2-.78-1.65-.37-.41-1-.58-1.93-1.07ZM432.5,442.43l.02-.41c.49-.05,1.02,0,1.47-.17.34-.13.73-.49.83-.82.07-.24-.28-.87-.48-.89-.93-.07-1.98-.24-2.8.08-1.58.63-1.64,2.08-.23,3.11.44.32.98.49,1.81.9-.72.17-1.06.19-1.33.34-.5.27-.97.61-1.45.93.48.31.94.69,1.46.92.28.13.74.14.98-.01.72-.44,1.61-.86,1.95-1.53.19-.37-.54-1.29-1-1.85-.27-.32-.82-.41-1.25-.61ZM494.9,425.75v.39c-.58.07-1.18.05-1.72.23-.3.09-.65.48-.69.77-.04.29.27.89.47.9.93.07,1.94.19,2.78-.1.55-.19,1.28-1.14,1.18-1.6-.14-.68-.91-1.25-1.47-1.81-.22-.22-.59-.27-1.05-.46.34-.23.46-.36.61-.41.73-.24,2.12.36,1.84-1.12-.07-.39-1.41-.54-2.17-.79-.1-.03-.26-.05-.33,0-.62.49-1.41.91-1.76,1.55-.17.32.37,1.18.78,1.61.38.4,1.01.56,1.53.83ZM459.42,423.71c.2.12.4.24.59.36.65.08,1.38.37,1.92.16.28-.11.46-1.22.24-1.65-.22-.43-1-.8-1.53-.8-4.48.03-3.77-.7-3.86,3.77,0,.39-.12.83.02,1.17.22.52.61.96.93,1.44.32-.49.75-.93.93-1.47.33-.97.51-1.98.76-2.98ZM404.6,423.75l.62.36c.64.07,1.5.41,1.86.13.37-.29.46-1.27.28-1.81-.12-.35-.93-.59-1.46-.66-.88-.1-1.78,0-2.68-.02-.95-.03-1.28.4-1.24,1.32.06,1.23-.07,2.47.06,3.68.05.5.58.94.89,1.41.3-.49.69-.95.88-1.48.33-.96.53-1.96.79-2.94ZM446.93,439.89c-.19,0-.38.02-.58.02-.15.47-.53,1.02-.41,1.4.5,1.52,1.14,3.01,1.8,4.48.12.28.61.62.85.57.34-.07.76-.41.9-.75.53-1.24,1.02-2.5,1.4-3.79.15-.52,0-1.13-.01-1.7-.47.3-.95.58-1.4.89-.33.23-.63.7-.95.7-.27,0-.58-.48-.83-.78-.28-.33-.52-.7-.77-1.05ZM423.43,423.87c.11.05.25.13.41.16.55.09,1.11.16,1.66.24.08-.59.35-1.24.19-1.75-.11-.35-.8-.74-1.24-.73-5.01.03-4.11-.69-4.21,3.91,0,.34-.1.72.02,1,.24.52.61.98.93,1.47.31-.49.85-.96.88-1.46.06-1.16.05-2.24,1.36-2.82ZM523.51,441.87h0c0-1.17.08-2.35-.05-3.51-.04-.38-.61-.71-.94-1.06-.29.33-.83.66-.84,1-.07,2.34-.08,4.69,0,7.03.01.37.62.72.95,1.07.29-.4.78-.77.82-1.19.12-1.1.04-2.23.04-3.34ZM457.72,461.49c0-.72.1-1.47-.04-2.17-.08-.38-.56-.68-.85-1.01-.32.31-.89.59-.91.92-.1,1.5-.1,3.01,0,4.51.02.33.59.61.91.92.3-.33.78-.63.85-1.01.14-.7.04-1.44.04-2.17ZM423,479.74h0c0-.73.1-1.47-.04-2.17-.07-.38-.55-.67-.85-1.01-.32.31-.89.61-.91.94-.1,1.5-.1,3.02,0,4.53.02.32.6.6.93.9.29-.33.76-.63.83-1.01.13-.7.04-1.45.04-2.17ZM386.48,461.55s.01,0,.02,0c0-.79.1-1.59-.05-2.35-.07-.35-.58-.74-.97-.84-.19-.05-.76.51-.78.81-.09,1.51-.11,3.03-.02,4.54.02.34.57.64.88.96.3-.31.8-.59.87-.94.14-.7.04-1.45.04-2.18ZM441.26,443.25s.01,0,.02,0c0-.78.08-1.57-.04-2.33-.05-.32-.51-.78-.8-.8-.3-.02-.88.41-.9.67-.09,1.61-.1,3.22-.02,4.83.01.28.57.74.87.74.29,0,.78-.46.83-.78.12-.76.04-1.55.04-2.33ZM421.99,476.11c.49-.63.98-.99.95-1.31-.03-.34-.53-.65-.82-.97-.32.29-.83.55-.9.88-.06.31.37.72.76,1.4ZM385.71,457.81c.37-.73.74-1.12.7-1.48-.02-.28-.62-.77-.82-.71-.37.11-.84.54-.88.88-.03.3.47.66.99,1.31ZM458.21,456.57c-.68-.5-1.05-.98-1.37-.95-.34.03-.77.5-.89.87-.06.19.47.78.76.81.36.03.76-.34,1.51-.73ZM468.76,480.68c-.48.66-.97,1.04-.92,1.34.05.34.54.74.91.84.19.05.76-.47.78-.76.02-.35-.36-.73-.76-1.43ZM441.74,438.14c-.7-.41-1.07-.8-1.42-.79-.29.01-.83.58-.77.78.1.37.51.85.85.9.3.05.68-.42,1.34-.89Z"/>
      <path class="cls-4" d="M317,408.91c0,1.4,0,2.81,0,4.21,0,1.04.24,2.15-1.33,2.44-.27.05-.42,1.15-.48,1.77-.07.8.01,1.49-1.09,1.77-.38.1-.71,1.12-.72,1.73,0,.61.32,1.64.7,1.74,1.08.29,1.09.95,1.08,1.77-.01,1.23-.01,2.47,0,3.7,0,.91.09,1.77-1.19,2.05-.32.07-.53,1.07-.61,1.67-.11.89.01,1.62-1.23,2.02-.92.29-1.97,1.28-2.25,2.18-.43,1.41-1.29,1.32-2.3,1.31-.76,0-1.41-.01-1.61,1.02-.06.33-.79.69-1.25.74-.94.12-1.91,0-2.86.06-.4.03-1.1.26-1.13.47-.22,1.6-1.38,1.33-2.42,1.33-5.89,0-11.79,0-17.68,0-.94,0-1.96.17-2.12-1.26-.02-.22-.68-.5-1.06-.54-.89-.08-1.82.09-2.68-.08-.58-.11-1.06-.66-1.61-.97-.52-.29-1.05-.68-1.61-.75-.93-.12-1.72.05-2.18-1.26-.33-.95-1.4-1.91-2.37-2.29-1.11-.43-1.11-1.06-1.1-1.92.01-.91.08-1.81-1.23-1.99-.25-.03-.56-.77-.59-1.2-.08-1.23-.04-2.47-.03-3.7.01-1.02-.28-2.1,1.33-2.41.87-.17.76-3.25-.14-3.44-1.3-.28-1.22-1.1-1.18-2.01.04-.9,0-1.66-1.18-1.86-.28-.05-.61-.76-.62-1.17-.05-3.42-.04-6.85-.01-10.27,0-.35.21-.97.39-.99,1.65-.23,1.32-1.47,1.45-2.55.06-.45.41-.93.76-1.27.89-.85,1.92-1.56,2.76-2.45,1.28-1.34,2.02-3.4,4.45-3.09.28.04.84-.17.87-.34.42-2.12,2.07-1.38,3.34-1.47,1.06-.08,2.33.34,2.54-1.38.02-.19.75-.42,1.14-.42,6.45-.03,12.91-.02,19.36,0,.35,0,.98.19,1.01.37.31,2.03,1.86,1.29,3.02,1.42,1.12.12,2.62-.53,2.84,1.41.01.12.26.34.35.32,1.93-.45,3.03.86,4.21,1.98.85.81,1.67,1.65,2.5,2.49.39.39.84.74,1.13,1.19.33.5.64,1.08.72,1.65.12.87-.13,1.81,1.19,2.05.29.05.61.86.63,1.33.08,1.62.03,3.25.03,4.88h0ZM275.12,426.24l.04.04c-.21-.82-.03-1.9-1.4-1.9-.16,0-.3-.41-.49-.6-.38-.38-.78-.73-1.17-1.1-.25.54-.75,1.1-.72,1.62.11,1.54-.43,2.13-2,2.06-.55-.03-1.57.51-1.6.86-.12,1.22.99.84,1.7.97.58.1,1.43.08,1.68.44.93,1.36,1.95,2.56,3.4,3.38.2.11.22.52.42.68.45.37.92.81,1.45.95.62.16,1.31.04,2.1.04-.18,1.72.77,1.84,1.98,1.83.58,0,1.6.29,1.66.6.26,1.3,1.12,1.2,2.03,1.2,4.21,0,8.42-.06,12.62.03,1.57.03,2.22-.45,1.91-2.02l-.05.05c1.5-.08,3.42,1.03,4.07-1.47.04-.14.53-.12.74-.27.29-.21.5-.51.75-.77.34-.35.66-.7,1.02-1.03.23-.21.56-.32.75-.56,1.2-1.5,2.07-3.43,4.56-3.16.22.02.89-1.14.76-1.31-.65-.84-1.49-1.52-2.25-2.27-.42-.41-.81-.87-1.26-1.25-.3-.25-.69-.54-1.04-.54-.23,0-.57.45-.67.76-.12.35-.09.78-.04,1.16.15,1.26-.43,1.8-1.64,1.63-1.67-.24-2.2.6-2.13,2.09l.05-.05c-.61-.07-1.21-.19-1.82-.19-5.71-.01-11.42,0-17.14,0-1.5,0-3,0-4.71,0,.32-1.95-.85-1.91-2.07-1.85-.5.02-1.01-.03-1.51-.05ZM302.13,406.2c-1.63.72-4.43-1.49-5.68,1.72-1.66.06-1.35,1.28-1.36,2.31-.01,1.01,0,2.02,0,3.03,0,1-.19,2.06,1.31,2.26.23.03.58.85.5,1.23-.44,2.2,1.95,2.55,2.57,4.05.21.5.85.79,1.16,1.27.44.68,3.17.97,3.43.23.13-.36-.29-1.16-.69-1.41-.41-.25-1.11.02-1.64-.11-.39-.1-.7-.49-1.05-.75.36-.33.67-.77,1.09-.95.38-.16.9.05,1.33-.06,1.77-.45,4.25,1.28,5.24-1.65.01-.04.11-.08.15-.07,2.02.56,2.99-1.14,4.33-2.02.24-.16.58-.55.53-.74-.46-1.65,1.44-4.02-1.47-4.94-.11-.04-.22-.27-.23-.42-.07-1.25-.97-1.1-1.82-1.18-.61-.06-1.69-.27-1.72-.52-.21-1.56-1.3-1.27-2.27-1.29-1.12-.01-2.24,0-3.7,0ZM284.18,411.61c-.34-1.23.97-3.31-1.59-3.89-.1-.02-.2-.28-.21-.43-.07-1.17-.92-1.08-1.71-1.07-1.85,0-3.72-.11-5.56.05-1.45.12-3.5-1.03-4.06,1.53,0,.04-.09.11-.12.1-1.84-.29-3.1.64-4.18,1.97-.03.03-.14,0-.16.03-.24.33-.73.73-.66,1,.37,1.63-1.29,3.95,1.53,4.79.08.02.16.18.16.28.1,1.46,1.2,1.12,2.11,1.27.56.09,1.08.49,1.6.79.55.32,1.05.93,1.61.98,1.56.14,3.14,0,4.71.09.33.02.63.57.94.87-.32.29-.59.74-.96.83-.58.15-1.31-.11-1.81.13-.35.17-.44.9-.64,1.38.74.13,1.49.36,2.23.36.4,0,.9-.3,1.19-.61.89-.95,1.53-2.32,2.6-2.86,1-.5,1.18-1,1.14-1.88-.05-1-.07-1.92,1.31-2.08.22-.03.48-.68.52-1.07.08-.78.02-1.57.02-2.55ZM289.54,424.53c4.3-.09,3.72.65,3.76-3.89,0-.22.05-.48-.03-.66-.15-.33-.36-.83-.6-.87-1.26-.21-1.3-1.11-1.19-2.02.19-1.5-.54-1.78-1.85-1.78-1.32,0-1.96.35-1.89,1.81.03.6-.31,1.66-.68,1.76-1.17.31-1.12,1.08-1.11,1.93.03,4.41-.38,3.64,3.59,3.73Z"/>
      <path class="cls-4" d="M276.73,465.78c1.35-.39,2.05-.03,1.91,1.51-.08.89-.11,1.81.03,2.69.07.41.59.74.9,1.11.3-.32.84-.62.87-.97.11-1.17.12-2.36,0-3.53-.03-.35-.57-.67-.89-.99-.28-.28-.8-.53-.81-.81,0-.31.4-.85.7-.91,1.36-.26,1.01-1.28,1.05-2.12.04-.81.05-1.6-1.09-1.72-.26-.03-.7-.51-.67-.73.06-.35.41-.66.68-.96.34-.37.69-.73,1.07-1.05.33-.28.72-.51,1.08-.76.24.38.67.76.68,1.15.07,1.91.03,3.82.03,5.73,0,2.08.05,4.16,0,6.23-.03,1.11.44,1.48,1.5,1.46,3.2-.04,6.4-.06,9.6,0,1.32.03,1.77-.42,1.75-1.75-.06-4.88,0-9.77-.02-14.66,0-.93-.06-1.69,1.17-2.05.4-.12.6-1.39.62-2.14,0-.46-.48-.95-.79-1.39-.28-.39-.63-.74-.94-1.11.44-.24.87-.62,1.33-.68,1.07-.12,2.33.25,2.5-1.46.02-.16.65-.34,1.01-.36.95-.05,1.91-.01,2.86-.04.33,0,.79.04.97-.15.81-.89,1.49-1.92,2.34-2.77.39-.39,1.07-.58,1.65-.66.87-.13,1.89.12,1.96-1.24,0-.11.07-.29.12-.3,2.06-.29,1.58-1.91,1.71-3.21.02-.2.14-.47.3-.57,1.5-.88,2.4-2.35,3.62-3.48,1.26-1.17,2.5-3,4.88-2.26.91.28,2.06-.15,2.22,1.37.02.21.65.32.91.56.29.27.71.66.68.96-.03.28-.6.76-.88.72-2.5-.34-3.29,1.72-4.59,3.11-.84.89-1.84,1.63-2.76,2.45-.87.79-1.83,1.51-2.56,2.42-1.35,1.66-2.48,3.47-5.11,3.07-.95-.15-2.21-.41-2.43,1.28-.03.23-1.15.48-1.75.45-1.33-.06-1.76.46-1.75,1.77.04,4.88,0,9.77-.02,14.66l.05-.03c-1.66.46-1.96-.47-1.79-1.8.18-1.47-.57-1.76-1.87-1.77-1.33-.01-1.93.35-1.89,1.78.03,1.23.17,2.14,1.7,1.95,1.44-.18,2.24.29,2.02,1.9-.19,1.41.43,1.98,1.84,1.68l-.06-.05c.05.9.16,1.65-1.09,2.09-.48.17-.59,1.69-.61,2.59,0,.29.81.86,1.25.87,4.04.07,8.07.04,12.11.02.27,0,.65-.02.79-.18.79-.91,1.53-1.88,2.28-2.83.1-.13.16-.38.26-.4,2.2-.32,1.41-2.03,1.49-3.28.08-1.28.02-2.58.02-3.87,0-1.05.23-2.18-1.34-2.45-.24-.04-.45-.82-.49-1.27-.08-1,.03-2.02-.07-3.02-.03-.34-.43-.84-.73-.89-.3-.06-.96.31-.99.56-.15,1.22-.99,1.18-1.85,1.18-.9,0-1.84-.11-2.02,1.2-.03.23-.56.55-.88.57-1.17.07-2.36.09-3.53,0-.3-.02-.57-.5-.86-.77.31-.31.59-.86.94-.9,1.22-.15,2.67.27,2.93-1.61.01-.08.19-.21.26-.19,2.03.6,3.2-.92,4.29-2.04,1.35-1.38,3.17-2.68,2.52-5.19-.36-1.39.23-2.3,1.88-2.02l-.05-.05c-.02,3.81-.07,7.62-.05,11.43,0,.44.29,1.22.52,1.26,1.52.21,1.27,1.3,1.27,2.28,0,3.59,0,7.18,0,10.77,0,.79.03,1.49-1.05,1.8-.39.11-.51,1.15-.77,1.75-.26.58-.53,1.63-.83,1.64-.97.04-2.23.75-2.87-.85-.17-.43-1.11-.78-1.71-.79-4.82-.06-9.64-.04-14.47-.04-.93,0-1.96.24-2.13-1.23-.03-.24-.79-.56-1.21-.57-2.75-.05-5.49-.06-8.24-.01-.44,0-1.23.29-1.26.52-.2,1.53-1.29,1.28-2.28,1.29-2.35.02-4.71.03-7.06.04,0,0,.05.05.05.05-.02-3.03-.04-6.06-.06-9.08l-.05.05ZM300.85,456.5c-.27-.65-.51-1.21-.75-1.78-.92.63-1.88,1.23-2.75,1.93-.23.19-.29.66-.31,1.01-.01.16.22.49.36.5.88.07,1.81.25,2.62.02.39-.11.54-1.04.84-1.68ZM298.75,468.46s0,0,.01,0c0-.67.09-1.36-.04-2-.07-.32-.55-.75-.85-.76-.3,0-.85.44-.87.73-.1,1.28-.11,2.57-.02,3.84.02.29.55.74.86.75.29,0,.79-.41.86-.73.14-.58.04-1.22.04-1.83ZM301.12,451.01c-.59-.77-.95-1.7-1.39-1.74-1.35-.13-.93,1.08-.96,1.82-.03.71-.27,1.83.96,1.65.47-.07.82-.97,1.4-1.72Z"/>
      <path class="cls-4" d="M284.17,460.01c0-2.41.07-4.82-.03-7.23-.06-1.44.49-1.9,1.85-1.79,1.06.08,2.13.01,3.19,0,1.04,0,2.23-.28,2.36,1.34,0,.09.12.24.2.25,2.24.37,1.49,2.13,1.51,3.43.06,3.86-.02,7.73.04,11.6.02,1.26-.41,1.69-1.64,1.65-1.96-.07-3.92-.09-5.88,0-1.31.06-1.63-.52-1.6-1.7.06-2.52.02-5.04.01-7.56Z"/>
      <path class="cls-4" d="M273.21,450.12c0-.95-.01-1.91,0-2.86.01-.88.03-1.74-1.18-1.83-.15-.01-.39-.15-.4-.25-.21-1.87-1.62-1.44-2.79-1.51-.27-.02-.63-.05-.78-.22-.78-.94-1.48-1.95-2.28-2.87-.25-.29-.73-.49-1.13-.52-.95-.08-1.91.01-2.86-.05-.41-.03-1.13-.2-1.15-.4-.27-1.77-1.59-1.4-2.72-1.42-.5,0-1.05.12-1.5-.03-.53-.17-1.41-.6-1.4-.88.05-.92-.79-2.22.81-2.68.26-.07.55-.18.72-.37.4-.46.69-1.34,1.11-1.4,1.26-.17,2.57-.04,3.86,0,.14,0,.35.12.41.25.82,1.55,2.68,2.3,3.4,3.59.92,1.67,2.01,1.56,3.36,1.62.2,0,.48.12.58.28.9,1.49,2.64,2.36,3.42,3.65.94,1.55,1.93,1.47,3.2,1.54.25.01.69.19.71.32.18,1.8,1.53,1.38,2.65,1.49.39.04,1.04.29,1.07.53.14.85.45,1.29,1.37,1.33.2,0,.53.58.51.88-.02.28-.39.76-.64.78-1.16.09-1.13.87-1.13,1.68,0,1.51.05,3.03-.03,4.54-.02.39-.44.76-.67,1.14-.35-.27-.94-.49-1-.82-.25-1.27-1.18-.96-1.98-.99-.84-.03-1.73-.16-1.83,1.13-.02.26-.59.66-.92.67-2.35.06-4.71.07-7.07,0-.34,0-.67-.51-1-.78.36-.32.71-.89,1.1-.92,1.39-.12,2.81-.15,4.2-.03,1.62.14,2.11-.56,1.97-2.05-.08-.83-.01-1.68-.01-2.52ZM275.01,449.8c0,.75-.12,1.4.04,1.97.12.42.57.96.96,1.03,2.24.45,2.68.05,2.67-2.19,0-.39,0-.78-.01-1.17-.01-2.22-.03-2.18-2.23-2.17-2.23.01-1.11,1.69-1.42,2.52Z"/>
      <path class="cls-4" d="M293.32,502.1c3.2.02,6.39.01,9.59.07,1.04.02,1.4-.46,1.39-1.41-.01-1.4,0-2.8,0-4.21,0-.87.03-1.68-1.19-1.84-.26-.03-.62-.75-.63-1.15-.04-4.6,0-9.2-.04-13.8-.02-1.53.99-1.31,1.93-1.35,1.02-.04,1.75.11,1.7,1.42-.07,2.02-.02,4.04,0,6.06,0,.78-.09,1.55,1.07,1.76.31.06.67.92.68,1.43.06,3.2.04,6.39.03,9.59,0,.82.51,1.19.99,1.78,1.12,1.38,2.28,1.94,3.95,1.82.14,0,.48.52.44.76-.05.31-.31.72-.59.85-.32.15-.77.07-1.16.07-5.5,0-10.99-.04-16.49.03-1.51.02-1.9-.6-1.64-1.92,0,0-.05.05-.05.05Z"/>
      <path class="cls-4" d="M311.52,511.18c.84.03,1.68.11,2.51.08.35-.01.97-.21,1-.39.23-1.67,1.46-1.33,2.54-1.41.4-.03.86-.21,1.15-.47.41-.36.65-1.21,1.03-1.26,1.32-.14,3.49-.53,3.86.08,1.01,1.66,2.32,1.61,3.81,1.8.76.1,2.53,3.13,2.34,3.9-.13.53-.61.98-.97,1.44-.13.16-.54.18-.56.3-.35,2.15-2.03,1.48-3.28,1.49-4.48.05-8.96.05-13.44-.02-.58,0-1.67-.58-1.65-.78.13-.98-.98-2.4.94-2.91.39-.1.51-1.24.76-1.9,0,0-.05.05-.05.05Z"/>
      <path class="cls-4" d="M262.07,516.75c-2.53,0-5.05-.03-7.58.01-1,.02-1.45-.32-1.38-1.36.06-.89-.1-1.82.06-2.69.1-.52.57-1.02.98-1.43.82-.84,2.1-1.47,2.46-2.45.44-1.2,1.09-1.21,2-1.2,1.18.01,2.36,0,3.54,0,.9,0,1.79-.11,2.03,1.2.06.3,1.08.54,1.69.6.88.09,1.34.6,2,1.08,1.5,1.08,1.72,2.27,1.76,3.81,0,.21.48.39.7.61.34.35.66.72.99,1.08-.5.25-.99.7-1.49.71-2.58.07-5.17.03-7.75.03,0,0,0-.02,0-.03Z"/>
      <path class="cls-4" d="M264.08,495.67c0-.9,0-1.8,0-2.69,0-.85-.1-1.7,1.15-1.86.27-.04.63-.72.66-1.13.09-1.23.02-2.47.04-3.7.02-1.07-.33-2.28,1.33-2.62.27-.06.4-1.15.46-1.78.08-.81.01-1.71,1.17-1.61.85.07,2.15-.61,2.37.79.14.9.67,2.11-.71,2.81-.46.23-.92.89-.99,1.41-.15,1.1-.02,2.24-.06,3.36-.04,1.09.44,2.44-1.38,2.72-.22.03-.41.96-.42,1.47-.04,2.58-.07,5.16,0,7.74.03,1.19-.4,1.58-1.56,1.53-2.02-.07-4.04-.05-6.06,0-1.08.03-1.52-.37-1.5-1.46.04-2.69-.03-5.39.05-8.08.01-.45.53-.89.82-1.33.3.43.84.85.86,1.29.1,1.96.09,3.93.04,5.89-.04,1.25.17,1.97,1.72,1.96,1.54-.01,2.18-.46,2.01-2.02-.09-.89-.02-1.79-.02-2.69h0Z"/>
      <path class="cls-4" d="M276.79,474.77c.18,1.26-.23,1.82-1.63,1.8-4.37-.07-8.74,0-13.11-.04-.5,0-1.39-.24-1.43-.48-.24-1.47-1.27-1.26-2.28-1.35-.52-.05-1-.43-1.5-.67.37-.38.8-.72,1.08-1.15.3-.46.64-1.02.65-1.54.06-3.14-.01-6.28.07-9.41.01-.58.48-1.61.81-1.64,1.25-.12.91,1,.92,1.7.04,2.47.06,4.93,0,7.4-.04,1.3.42,1.86,1.74,1.76.95-.07,1.43.33,2.17,1.13,1.04,1.11,1.95,2.95,4.35,2.6,2.69-.39,5.48-.07,8.22-.05,0,0-.05-.05-.05-.05Z"/>
      <path class="cls-4" d="M328.07,471.1c0-.82-.13-1.46,1.03-1.92,1.03-.42,1.73-1.66,2.57-2.54.31-.32.59-.67.9-.99.31-.33.64-.64.92-.99.13-.16.13-.5.28-.58,3.26-1.73.83-4.67,1.48-6.95.03-.12-.11-.4-.21-.42-2.35-.41-1.36-2.27-1.54-3.59-.13-.95-.23-1.58-1.15-2.4-1.07-.95-3.27-1.86-2.46-4.14.13-.37.4-.68.6-1.03.37.24.78.45,1.11.74.37.32.74.67,1.01,1.08.88,1.35,3.05,1.82,2.71,4.04-.06.42.34,1.27.61,1.32,1.23.19,1.15,1,1.15,1.86,0,3.14,0,6.28.02,9.42,0,.85-.16,1.31-1.12,1.71-.96.4-1.81,1.36-2.42,2.26-1.36,2.01-2.78,3.69-5.55,3.07l.05.05Z"/>
      <path class="cls-4" d="M311.56,511.13c-.92.14-1.96.09-2,1.49,0,.17-.71.45-1.09.46-2.8.04-5.61.06-8.41-.01-.42-.01-1.18-.49-1.19-.78-.03-.89.06-2.48.4-2.56,1.55-.37,1.3-1.4,1.37-2.45.03-.48.41-.93.63-1.39.39.3.75.63,1.16.89.5.32,1.03.81,1.56.83,2.58.09,5.16,0,7.74.07.52.01,1.03.42,1.54.65-.36.39-.79.73-1.06,1.18-.31.52-.48,1.12-.7,1.69,0,0,.05-.05.05-.05Z"/>
      <path class="cls-4" d="M245.78,457.48c0,.84,0,1.68,0,2.52-.01.97.01,1.64,1.22,2.19,1.04.47,1.5,2.15,2.53,2.77,1.36.82,1.8,3.1,4.05,2.53.88-.22,1.33.34,1.3,1.27-.03,1.01.07,2.03-.04,3.03-.04.38-.51.71-.78,1.06-.31-.25-.65-.47-.92-.76-.82-.91-1.58-1.87-2.41-2.76-1.03-1.09-2.08-2.17-3.18-3.2-.89-.84-1.86-1.58-2.77-2.4-.87-.78-2.12-1.47-2.45-2.45-.43-1.25-.67-3.48,0-4.01,1.47-1.16,1.65-2.45,1.84-3.98.02-.17.68-.43.96-.36.26.07.57.53.59.84.07,1.23.03,2.47.03,3.7Z"/>
      <path class="cls-4" d="M289.55,449.14c-.73,0-1.45,0-2.18,0-.28,0-.66.05-.81-.11-.83-.88-1.59-1.83-2.41-2.72-.3-.33-.73-.53-1.04-.85-.3-.31-.69-.7-.72-1.07-.03-.49.15-1.1.47-1.45.14-.15.85.2,1.29.33.51.15,1.02.41,1.54.42,2.01.05,4.03.06,6.04,0,.51-.01,1.01-.37,1.54-.45.55-.08,1.11,0,1.67,0-.17.72-.25,1.49-.55,2.16-.24.55-1.03.96-1.09,1.48-.24,2.23-.17,2.24-2.41,2.24-.45,0-.9,0-1.34,0Z"/>
      <path class="cls-4" d="M260.42,452.8c0-1.9-.06-3.81.04-5.71.03-.52.47-1.4.82-1.45,1.15-.18.92.83.93,1.51.02,1.96.01,3.92,0,5.88,0,.82.08,1.37,1.09,1.75.93.35,1.69,1.29,2.37,2.09.12.15-.41,1.25-.76,1.33-1.16.26-2.69-.38-2.97,1.58-.02.13-.7.34-.86.22-.3-.22-.61-.64-.62-.99-.06-2.07-.03-4.14-.03-6.21h0Z"/>
      <path class="cls-4" d="M284.28,502.12c-.03-2.63-.09-5.27-.08-7.9,0-.38.31-1.06.52-1.08,1.48-.12,1.26-1.17,1.26-2.1.01-1.29-.09-2.59.05-3.87.06-.51.62-.96.95-1.44.26.45.73.89.75,1.36.09,1.9.06,3.81.06,5.72,0,.94.18,1.95-1.25,2.13-.24.03-.53.79-.56,1.23-.07,1.4-.09,2.81-.02,4.21.06,1.28-.34,1.95-1.73,1.7l.05.05Z"/>
      <path class="cls-4" d="M284.24,502.08c.05,1.52-.7,1.94-2.17,1.9-4.25-.1-8.5-.01-12.75-.09-.52,0-1.42-.46-1.47-.81-.19-1.16.85-.92,1.51-.92,4.98-.03,9.95-.03,14.93-.04,0,0-.05-.04-.05-.04Z"/>
      <path class="cls-4" d="M318.99,489.23c1.38,0,1.74.72,1.7,2.04-.09,3.09-.06,6.18-.01,9.27.02,1.14-.36,1.65-1.56,1.59-1.46-.07-2.92.04-4.38-.07-.45-.04-.87-.56-1.3-.85.46-.29.88-.74,1.37-.83.82-.14,1.68-.08,2.52-.02,1.18.08,1.57-.43,1.57-1.58,0-3.2.08-6.4.13-9.59l-.05.05Z"/>
      <path class="cls-4" d="M271.48,507.64c4.07.06,3.49-.53,3.47,3.61,0,.61-.53,1.72-.86,1.73-.94.04-2.32.86-2.75-.91-.07-.3-.48-.53-.74-.78-.35-.34-.71-.67-1.06-1.02-.25-.26-.48-.54-.72-.8-.34-.38-.69-.75-1.03-1.12.45-.23.87-.6,1.34-.67.77-.11,1.56-.03,2.34-.03Z"/>
      <path class="cls-4" d="M302.41,514.98c1.45,0,2.91-.06,4.36.04.38.03.72.6,1.07.92-.4.27-.79.77-1.2.78-2.85.06-5.7.05-8.55-.03-.37-.01-.72-.58-1.08-.89.35-.27.68-.76,1.04-.78,1.45-.09,2.91-.04,4.36-.04,0,0,0,0,0-.01Z"/>
      <path class="cls-4" d="M324.13,438.63c.97-.47,1.56-.55,2.19.74.51,1.05,1.76,1.78,2.78,2.53.62.46,1.1,2.98.43,3.38-.3.18-1,.16-1.2-.05-.8-.89-1.48-1.89-2.2-2.85-.03-.04-.04-.14-.07-.14-2.43-.27-1.32-2.39-1.9-3.62l-.03.03Z"/>
      <path class="cls-4" d="M276.78,465.73c-1.44,0-1.85-.73-1.76-2.13.12-1.95-.02-3.92.07-5.88.02-.41.52-.8.8-1.19.31.38.82.73.88,1.14.17,1.14-.36,2.61,1.6,2.7.02,0,.08,1.24,0,1.26-2.29.48-1.33,2.32-1.56,3.64-.03.17-.04.33-.06.5,0,0,.05-.05.05-.05Z"/>
      <path class="cls-4" d="M293.37,502.05c-1.36.27-1.96-.2-1.92-1.67.08-2.58,0-5.16.07-7.74.01-.47.5-.93.77-1.39.32.48.9.94.92,1.43.1,3.14.08,6.28.11,9.42,0,0,.05-.05.05-.05Z"/>
      <path class="cls-4" d="M260.43,486.83c0-1.23-.08-2.46.05-3.68.04-.38.63-.7.96-1.05.25.35.71.7.72,1.06.07,2.29.08,4.58,0,6.86-.01.38-.57.74-.88,1.11-.29-.38-.78-.73-.82-1.14-.12-1.05-.04-2.12-.04-3.18,0,0,.01,0,.02,0Z"/>
      <path class="cls-4" d="M328.01,471.05c0,.91.07,1.85-1.25,1.95-.19.01-.51.35-.52.56-.07,1.09-.77,1.18-1.64,1.19-1.94.01-2.81-1.25-1.96-3.02.15-.32.79-.55,1.22-.57,1.4-.08,2.8-.04,4.2-.05,0,0-.05-.05-.05-.05Z"/>
      <path class="cls-4" d="M319.04,489.18c-1.43.41-2.11-.03-2.01-1.61.09-1.45-.03-2.9.08-4.35.03-.4.52-.76.8-1.13.31.38.86.74.88,1.13.14,2,.14,4,.2,6,0,0,.05-.05.05-.05Z"/>
      <path class="cls-4" d="M291.43,488.63c0,.55.09,1.13-.03,1.66-.08.33-.48.79-.75.79-.31.01-.89-.39-.91-.65-.09-1.32-.09-2.66-.01-3.99.01-.25.51-.69.72-.65.35.06.85.39.91.68.13.69.04,1.43.04,2.15.01,0,.02,0,.04,0Z"/>
      <path class="cls-4" d="M306.05,461.06c0,.61.1,1.25-.04,1.83-.08.33-.53.76-.84.78-.27.02-.8-.46-.82-.74-.09-1.22-.1-2.45,0-3.67.03-.33.6-.6.92-.9.26.34.66.66.76,1.04.13.52.03,1.11.03,1.66,0,0-.01,0-.02,0Z"/>
      <path class="cls-4" d="M274.98,514.41c.78.65,1.28,1.07,1.78,1.49-.61.29-1.21.8-1.82.82-.55.01-1.12-.51-1.69-.8.49-.43.98-.85,1.72-1.51Z"/>
      <path class="cls-4" d="M245.33,451.08c.57-.8.91-1.73,1.36-1.79,1.28-.18.94.99.86,1.64-.08.64-.53,1.24-.81,1.85-.41-.49-.82-.99-1.41-1.7Z"/>
      <path class="cls-4" d="M302.38,463.67c1.19.14,2.05.38,1.92,2.01-.12,1.41-.54,1.95-1.92,1.66l.06.05c0-1.25,0-2.5,0-3.75l-.05.03Z"/>
      <path class="cls-4" d="M317.44,480.26c-.52.72-.86,1.61-1.25,1.63-1.35.07-.99-1.12-.9-1.82.07-.56.57-1.08.88-1.61.38.54.76,1.08,1.27,1.8Z"/>
      <path class="cls-4" d="M253.48,444.72c-.71.36-1.09.71-1.46.7-.25,0-.73-.67-.66-.8.19-.36.58-.74.96-.82.23-.05.57.43,1.16.92Z"/>
      <path class="cls-4" d="M324.15,438.6c-.32-.15-.7-.24-.94-.47-.27-.26-.62-.68-.57-.97.05-.28.58-.7.86-.67.29.03.67.49.76.82.1.39-.07.86-.13,1.3,0,0,.02-.02.02-.02Z"/>
      <path class="cls-4" d="M318.97,445.52c-.02-.27-.16-.61-.05-.8.21-.37.57-.66.86-.98.28.26.57.53.85.79-.3.31-.56.68-.9.92-.19.13-.53.03-.81.03,0,0,.05.05.05.05Z"/>
      <path class="cls-4" d="M248.64,446.89c.39.65.79,1.03.72,1.26-.12.37-.54.64-.84.96-.27-.27-.78-.55-.77-.8.02-.37.42-.71.89-1.41Z"/>
      <path class="cls-1" d="M465.17,461.44c-.05.74,0,1.51-.17,2.22-.09.38-.54.68-.83,1.02-.33-.36-.9-.69-.94-1.08-.12-1.39-.1-2.8-.01-4.19.02-.38.65-1.08.73-1.04,1.83.85,3.62-.59,5.38-.04.48.15,1.08.76,1.14,1.22.15,1.33.13,2.69.01,4.02-.03.39-.59.73-.91,1.1-.3-.38-.81-.74-.86-1.15-.13-.98-.04-1.99-.04-2.99-.29,0-.59,0-.88,0,0,.95.1,1.91-.04,2.84-.07.47-.58.88-.89,1.32-.31-.43-.76-.82-.91-1.3-.18-.6-.11-1.27-.14-1.91-.21-.01-.42-.02-.63-.03Z"/>
      <path class="cls-1" d="M407.49,442.24c0,.93.12,1.89-.05,2.79-.09.51-.64.93-.99,1.39-.28-.45-.69-.88-.82-1.37-.16-.62-.09-1.3-.12-1.95-.18-.02-.35-.03-.53-.05-.08.69-.06,1.41-.27,2.06-.15.49-.6.88-.91,1.32-.31-.43-.85-.84-.9-1.3-.12-1.28-.1-2.58,0-3.87.04-.42.52-.8.8-1.2,1.23.96,2.43-.06,3.65-.06,2.88,0,2.88-.03,2.86,2.79,0,.9.08,1.81-.05,2.69-.05.36-.59.64-.91.96-.3-.32-.8-.62-.86-.98-.16-1.06-.13-2.14-.18-3.21-.25,0-.5,0-.75,0Z"/>
      <path class="cls-1" d="M506.16,442.3c0,.96.1,1.93-.04,2.86-.07.46-.61.84-.93,1.26-.31-.44-.75-.84-.88-1.33-.18-.64-.12-1.36-.16-2.04-.18,0-.36-.01-.55-.02-.07.7-.04,1.43-.25,2.09-.15.48-.6.86-.91,1.28-.3-.44-.81-.86-.85-1.33-.12-1.28-.12-2.58.01-3.85.04-.42.64-.79.98-1.19.96.89,1.89.09,2.85-.01,3.37-.38,3.46-.27,3.46,3.14,0,.39.05.79,0,1.17-.12.79.45,2.07-.99,2.04-1.29-.03-.83-1.21-.88-1.97-.05-.69-.01-1.39-.01-2.09-.28,0-.56-.02-.83-.03Z"/>
      <path class="cls-1" d="M460.47,478.71c0,1.02.08,2.06-.04,3.06-.05.41-.55.76-.85,1.14-.31-.37-.76-.7-.9-1.13-.21-.68-.2-1.42-.28-2.14-.17,0-.34.01-.51.02-.05.74-.02,1.5-.19,2.21-.09.39-.53.7-.81,1.04-.34-.35-.95-.67-.98-1.04-.11-1.45-.09-2.91.01-4.36.03-.34.79-.97.87-.92,1.71,1.07,3.33-.49,5.04-.1.93.21,1.43.4,1.4,1.42-.04,1.29.05,2.58-.07,3.86-.04.4-.57.76-.88,1.14-.31-.37-.83-.71-.88-1.11-.13-1.01-.04-2.05-.04-3.07-.3,0-.6,0-.9-.01Z"/>
      <path class="cls-1" d="M490.57,463.34c0-.84,0-1.68,0-2.52q0-2.53,2.45-2.54c2.32-.01,3.08.65,3.11,2.69.04,2.9.03,2.88-2.89,3.82-.32.1-.64.57-.72.93-.13.53.06,1.15-.1,1.66-.12.38-.58.64-.89.96-.31-.32-.85-.62-.88-.96-.1-1.34-.04-2.69-.04-4.03-.01,0-.02,0-.03,0ZM494.72,461.6c-.62-.64-.97-1.02-1.33-1.4-.31.42-.85.84-.86,1.27-.01.43.5.88.78,1.32.38-.33.77-.65,1.41-1.2Z"/>
      <path class="cls-1" d="M545.42,423.65c0,.62.05,1.24-.01,1.85-.09.85-.19,2.4-.44,2.43-1.33.16-2.73.07-4.06-.18-1.85-.35-2.39-1.8-1.82-3.36.54-1.45,1.57-2.64,3.43-2.73.36-.02.7-.83,1.03-1.3.31-.44.59-.9.88-1.35.33.48.87.92.94,1.44.15,1.05.04,2.13.04,3.19ZM542.63,423.37c-.29,0-.59.02-.88.03-.28.54-.71,1.05-.82,1.62-.2,1.05.51,1.28,1.42,1.29.96,0,1.37-.5,1.18-1.34-.13-.57-.59-1.07-.9-1.6Z"/>
      <path class="cls-1" d="M438.52,426.88c0-1.29-.1-2.59.05-3.86.06-.46.66-1.07,1.13-1.2.73-.2,1.56-.11,2.34-.02.41.04.85.27,1.17.54,1.42,1.19.85,2.84.67,4.24-.13,1.05-1.1,1.67-2.37,1.7-.39,0-.88.73-1.1,1.23-.19.43.05,1.03-.1,1.49-.11.34-.61.84-.82.79-.38-.09-.92-.52-.94-.85-.11-1.34-.04-2.69-.04-4.03,0,0,.01,0,.02,0ZM442.63,425.09c-.6-.67-.95-1.06-1.3-1.45-.31.41-.85.82-.86,1.24-.02.45.47.92.73,1.38.39-.32.79-.64,1.44-1.17Z"/>
      <path class="cls-1" d="M523.67,428.04c-.51-.75-1.02-1.49-1.52-2.22-.55.71-1.14,1.49-1.73,2.26-.22-.03-.45-.07-.67-.1-.29-1.62-.64-3.23-.81-4.86-.04-.41.54-.88.83-1.33.33.41.71.79.96,1.24.18.33.18.76.27,1.14.15,0,.3,0,.44-.01.07-.51.03-1.07.24-1.51.17-.36.61-.73.99-.81.2-.04.7.49.76.81.15.79.13,1.61.18,2.42.19.01.38.03.57.04.06-.67.01-1.37.23-1.98.18-.5.68-.89,1.03-1.33.26.47.84,1.03.73,1.4-.47,1.66-1.14,3.27-1.74,4.9-.26-.02-.52-.05-.78-.07Z"/>
      <path class="cls-1" d="M422.98,460.27c-1.75.65-1.76,1.73-1.82,2.9-.03.51-.56.99-.87,1.49-.32-.48-.88-.95-.91-1.44-.1-2.07-.1-4.14,0-6.21.02-.49.58-.96.9-1.43.32.43.9.86.9,1.29,0,1.16.53,1.39,1.54,1.45,1.36.08,2.11.88,2.12,2.29,0,1.01.08,2.02-.03,3.02-.04.37-.52.69-.8,1.04-.34-.34-.92-.65-.97-1.04-.14-1.02-.05-2.08-.05-3.35Z"/>
      <path class="cls-1" d="M505.18,423.67c-1.45.62-1.8,1.46-1.84,2.64-.02.62-.5,1.73-.83,1.75-1.38.11-.92-1.1-.94-1.83-.06-1.96-.07-3.93.02-5.89.02-.45.57-.87.87-1.31.31.43.87.85.89,1.29.04,1.12.52,1.47,1.56,1.45,1.27-.02,1.97.78,2.1,1.95.12,1.11.11,2.25-.01,3.36-.04.39-.62.71-.95,1.07-.29-.4-.78-.77-.83-1.19-.12-1.02-.04-2.06-.04-3.29Z"/>
      <path class="cls-1" d="M531.18,443.35c.53-1.05.92-2.04,1.52-2.88.2-.28.96-.17,1.46-.24.05.42.28.91.13,1.24-1.09,2.46-2.32,4.86-3.34,7.35-.34.81-.56,1.68-1.48,1.11-.42-.26-.7-1.64-.41-2.02,1.76-2.28.36-4.11-.6-6.05-.2-.41-.29-.91-.27-1.36,0-.16.62-.48.78-.39.37.2.69.57.92.94.46.73.84,1.51,1.29,2.32Z"/>
      <path class="cls-1" d="M432.89,463.21c-1.19,1.66-3.21,2.05-4.48.96-1.23-1.05-1.29-3.15,0-4.36.68-.64,1.59-1.43,2.39-1.42.76.01,1.82.83,2.17,1.57.54,1.14-.04,2.13-2,2.26.94.49,1.39.72,1.92.99Z"/>
      <path class="cls-1" d="M458.85,444.27c.48.19.96.38,1.46.58-.57,1.65-1.87,1.84-3.14,1.55-.76-.17-1.9-.83-1.99-1.4-.16-1.1.09-2.4.6-3.39.37-.71,1.37-1.31,2.2-1.52,1.25-.31,2.13.47,2.45,1.7.33,1.28-.22,2.02-1.59,2.47Z"/>
      <path class="cls-1" d="M522,462.59c.44.17.88.34,1.36.53-.58,1.62-1.88,1.81-3.15,1.54-.77-.16-1.82-.76-2.03-1.4-.35-1.08-.65-2.46.57-3.39.76-.57,1.52-1.31,2.4-1.53,1.17-.29,2.03.55,2.32,1.67.31,1.16-.04,2.1-1.48,2.58Z"/>
      <path class="cls-1" d="M389.23,443.72q.01,2.73-2.25,2.74c-2.58.01-3.29-.61-3.28-2.89,0-1.71,1.73-3.59,3.28-3.57,1.69.03,2.25.94,2.26,3.71ZM387.43,442.32c-.29-.11-.58-.21-.87-.32-.28.72-.57,1.44-.85,2.16.39.1,1.11.31,1.12.27.25-.68.41-1.4.59-2.11Z"/>
      <path class="cls-1" d="M476.81,462.39c.79.34,1.26.55,1.75.76-.58,1.61-1.86,1.81-3.14,1.5-.77-.19-1.8-.78-2-1.42-.34-1.07-.68-2.46.57-3.36.81-.59,1.69-1.46,2.56-1.48.72-.02,1.75.88,2.12,1.64.61,1.26-.38,1.97-1.85,2.37Z"/>
      <path class="cls-1" d="M533.81,425.99c.43.2.86.41,1.37.65-.52,1.47-1.67,1.82-2.91,1.51-.83-.2-1.97-.73-2.2-1.38-.36-1.04-.69-2.37.47-3.4.86-.76,1.53-2.07,2.86-1.56.79.3,1.61,1.12,1.94,1.91.51,1.2-.42,1.78-1.54,2.26Z"/>
      <path class="cls-1" d="M434.75,425.18c-.47.15-.93.31-1.73.57.74.4,1.21.65,1.7.91-.93,1.39-2.77,2.01-4.01,1.39-1.06-.53-1.69-2.44-1.27-3.84.39-1.3,2.62-2.81,3.76-2.42,1.51.51,1.97,1.67,1.55,3.38Z"/>
      <path class="cls-1" d="M398.39,424.95c0,.22.05.46,0,.67-.22.85-.21,2.09-.76,2.44-1.16.74-4.11.08-4.35-.94-.38-1.57-.27-3.27-.28-4.92,0-.13.66-.42.96-.36.29.06.66.46.7.75.11.83-.03,1.69.12,2.51.08.42.56.77.86,1.15.29-.4.73-.76.82-1.19.14-.7-.07-1.48.09-2.17.09-.42.6-.74.93-1.1.31.38.78.72.88,1.15.15.64.04,1.34.04,2.01,0,0,0,0,.01,0Z"/>
      <path class="cls-1" d="M430.34,478.53c-.3.85-.58,1.72-.92,2.56-.25.63-.55,1.73-.9,1.76-1.34.11-.92-1.08-.96-1.83-.05-1.11-.02-2.24.04-3.35.02-.34.26-.97.4-.97,1.31-.02,2.71-.2,3.9.19,1.15.38,1.29,1.69,1.16,2.87-.02.22.04.46-.01.67-.24.86.66,2.38-.91,2.43-1.66.05-.76-1.5-.95-2.34-.13-.56-.02-1.17-.02-1.76l-.84-.22Z"/>
      <path class="cls-1" d="M442.2,479.7c0,.17,0,.34,0,.5,0,2.59-1.54,3.66-4.04,2.63-.62-.26-1.28-1.04-1.41-1.69-.23-1.13-.15-2.35-.01-3.51.04-.39.63-.72.97-1.07.28.35.72.67.79,1.06.13.7-.07,1.48.09,2.17.11.47.58.86.89,1.29.28-.4.72-.77.8-1.2.14-.76-.04-1.58.1-2.34.07-.37.57-.65.87-.98.31.32.82.6.9.97.15.7.04,1.45.04,2.18h0Z"/>
      <path class="cls-1" d="M505.22,461.89q-.02,2.84-2.64,2.81c-2.18-.02-2.85-.68-2.83-2.77.02-1.84,1.72-3.72,3.32-3.66,1.56.05,2.17,1.08,2.15,3.62ZM503.47,460.65c-.29-.12-.57-.24-.86-.35-.31.7-.63,1.4-.94,2.1.38.12,1.09.37,1.1.33.28-.67.48-1.38.7-2.08Z"/>
      <path class="cls-1" d="M418.44,443.79q.01,2.66-1.98,2.66c-2.83,0-3.52-.54-3.53-2.78,0-1.67,1.69-3.64,3.17-3.66,1.77-.03,2.33.88,2.34,3.78ZM416.7,442.37c-.29-.12-.58-.24-.88-.36-.3.68-.61,1.36-.91,2.04.38.14.76.28,1.13.41.22-.7.44-1.4.65-2.09Z"/>
      <path class="cls-1" d="M478.75,443.77q0,2.68-2.29,2.68c-2.5,0-3.22-.62-3.22-2.75,0-1.71,1.66-3.66,3.14-3.68,1.78-.03,2.38.91,2.38,3.76ZM477.03,442.33c-.31-.11-.63-.22-.94-.33-.28.73-.57,1.45-.85,2.18.35.1.98.34,1,.29.31-.69.55-1.42.8-2.14Z"/>
      <path class="cls-1" d="M517.12,443.64q0,2.8-2.32,2.8c-2.51,0-3.18-.59-3.18-2.78,0-1.78,1.62-3.63,3.17-3.63,1.79,0,2.33.84,2.33,3.61ZM515.34,442.25c-.27-.1-.54-.19-.82-.29-.31.71-.63,1.43-.94,2.14.38.13.77.26,1.15.39.2-.74.4-1.49.61-2.23Z"/>
      <path class="cls-1" d="M486.03,442.03c-1.7.51-1.76,1.55-1.83,2.72-.04.57-.57,1.1-.89,1.65-.32-.54-.84-1.05-.91-1.61-.14-1.16-.08-2.35-.01-3.52.02-.39.3-1.1.47-1.1,1.31-.03,2.71-.19,3.91.21,1.31.44,1.15,1.87,1.11,3.05-.02.67.09,1.37-.06,2-.09.37-.57.65-.88.97-.3-.33-.82-.63-.86-.98-.11-1.07-.04-2.17-.04-3.39Z"/>
      <path class="cls-1" d="M405.62,478.53c-1.79.65-1.77,1.79-1.84,3-.03.48-.61.93-.94,1.39-.28-.45-.76-.88-.8-1.35-.11-1.22-.06-2.46,0-3.69.02-.41.13-.93.41-1.19.53-.48,4.57.3,4.67.94.23,1.57.23,3.18.23,4.77,0,.16-.66.52-.92.45-.32-.09-.74-.52-.77-.84-.09-1.09-.04-2.2-.04-3.5Z"/>
      <path class="cls-1" d="M451.36,479.76c0,.28.05.57,0,.84-.17.76-.36,2.16-.58,2.17-1.38.04-2.84-.03-4.13-.46-.82-.27-1.2-4.63-.6-5.34.21-.24.72-.43,1.01-.35.27.09.57.54.6.87.09.83-.04,1.69.09,2.51.06.39.5.72.76,1.08.32-.36.83-.68.93-1.09.16-.69-.06-1.47.11-2.16.11-.47.61-.85.94-1.26.3.4.75.75.85,1.19.15.64.04,1.34.04,2.01,0,0,0,0,0,0Z"/>
      <path class="cls-1" d="M393.67,460.32c-.27.92-.48,1.86-.82,2.75-.22.57-.63,1.06-.95,1.59-.29-.51-.78-.99-.84-1.52-.13-1.16-.07-2.35-.02-3.52.02-.4.26-1.13.42-1.14,1.31-.05,2.71-.21,3.93.15,1.23.37,1.22,1.71,1.13,2.86-.03.39.04.79-.01,1.17-.11.74.44,1.94-.88,1.97-1.3.03-.89-1.14-.96-1.91-.07-.75-.11-1.51-.16-2.26-.28-.05-.56-.1-.85-.14Z"/>
      <path class="cls-1" d="M515.32,424.51c.34,1.8-1.18,2.67-2.39,3.51-.82.56-2.16.37-2.57-.73-.39-1.05-.56-2.36-.29-3.42.2-.78,1.17-1.49,1.97-1.95,1.53-.88,3.27.47,3.29,2.59ZM513.91,424.88c-.64-.56-1.01-.9-1.39-1.23-.29.44-.8.89-.79,1.32,0,.43.54.85.85,1.28.36-.37.72-.74,1.34-1.37Z"/>
      <path class="cls-1" d="M389.23,423.98c0,1.8-1.34,3.85-2.48,4.15-1.59.42-3.59-.59-2.97-3.34.26-1.12,1.42-2.21,2.45-2.88.47-.3,1.73.31,2.44.79.43.3.5,1.14.55,1.28ZM387.83,424.85c-.64-.54-1.03-.87-1.41-1.2-.28.46-.79.92-.77,1.37.01.43.56.85.88,1.27.35-.39.71-.78,1.31-1.44Z"/>
      <path class="cls-1" d="M398.37,479.34c0,1.66-1.67,3.59-3.16,3.61-1.58.03-2.37-.87-2.39-2.71-.01-1.76,1.71-3.72,3.25-3.7,1.55.01,2.29.91,2.3,2.8ZM394.29,479.69c.59.6.98,1,1.37,1.4.27-.4.8-.83.75-1.19-.07-.51-.55-.97-.86-1.44-.34.33-.67.66-1.26,1.24Z"/>
      <path class="cls-1" d="M497.19,442.88c-.17,1.19-1.56,3.39-2.62,3.44-.87.04-1.98-.31-2.61-.89-1.24-1.14-.51-3.46,1.37-4.95,1.03-.82,2.42-.69,3.19.44.37.55.46,1.3.68,1.96ZM495.64,443.18c-.65-.58-1.02-.91-1.39-1.25-.29.43-.81.87-.81,1.3,0,.43.54.86.84,1.28.36-.36.73-.71,1.36-1.34Z"/>
      <path class="cls-1" d="M453.16,424.54c0,1.7-1.68,3.63-3.18,3.63-1.53,0-2.33-.95-2.34-2.79,0-1.71,1.68-3.63,3.18-3.63,1.59,0,2.33.89,2.33,2.79ZM451.79,424.86c-.63-.55-1.02-.89-1.4-1.22-.28.45-.78.9-.77,1.34,0,.43.54.85.85,1.27.36-.38.72-.76,1.32-1.39Z"/>
      <path class="cls-1" d="M389.22,480.87c.43.86-.54,1.65-1.35,1.9-1.22.39-2.66.6-3.69-.71-.69-.87-.71-2.89.06-3.72.97-1.06,1.93-2.47,3.62-1.62.74.37,1.83,1.05,1.07,2.51-1.15-1-2.24-1.09-3.02.28-.2.35-.04.9-.05,1.36h3.36Z"/>
      <path class="cls-1" d="M514.34,462.58c.45.86-.49,1.64-1.33,1.92-1.23.41-2.9.74-3.58-.74-.46-1-.55-2.57-.08-3.52.63-1.27,1.88-2.57,3.65-1.8.81.36,1.83,1.04,1.1,2.49-1.12-.92-2.23-1.03-3.03.28-.21.34-.06.9-.08,1.36h3.36Z"/>
      <path class="cls-1" d="M451.4,459.28c-.15.25-.26.65-.43.67-1.96.29-1.35,1.8-1.44,2.97-.03.33.08.74-.07.98-.2.32-.62.71-.92.7-.3-.02-.73-.47-.81-.8-.14-.58-.06-1.22-.06-1.83,0-.9.13-1.84-1.23-1.93-.22-.01-.56-.56-.55-.85,0-.29.35-.6.6-.86.39-.43.76-.94,1.25-1.21.46-.25,1.06-.22,1.6-.31.14,1,.75,1.5,1.7,1.73.16.04.23.45.37.74Z"/>
      <path class="cls-1" d="M413.61,483.05c-.22-.37-.56-.73-.64-1.13-.11-.6-.05-1.23-.04-1.84.02-.81.06-1.58-1.08-1.73-.28-.04-.75-.82-.69-.89.77-.93,1.6-1.83,2.5-2.64.1-.09.76.37,1.11.65.42.34.74.82,1.19,1.1.86.54.94,1.48.16,1.66-1.95.45-1.12,1.86-1.34,2.92-.13.64-.35,1.26-.53,1.9-.22,0-.44,0-.66,0Z"/>
      <path class="cls-1" d="M468.73,419.84c.91.96,1.82,1.88,2.66,2.85.07.09-.25.76-.42.77-1.77.15-1.28,1.48-1.36,2.51-.04.44.09.93-.05,1.33-.12.34-.57.85-.77.81-.38-.08-.89-.45-.98-.8-.17-.63-.1-1.33-.08-1.99.03-.88.07-1.68-1.17-1.82-.17-.02-.22-1.01-.33-1.56,1.03-.07,1.5-.71,1.74-1.64.05-.18.44-.27.76-.45Z"/>
      <path class="cls-1" d="M484.85,462.29c-.43-.18-.99-.24-1.28-.56-.49-.54-1.25-1.44-1.08-1.83.3-.69,1.21-1.11,1.89-1.62.11-.08.34-.05.49,0,.7.26,1.91.44,1.98.83.25,1.35-.99.92-1.72,1.07-.2.04-.38.15-.82.33.69.37,1.24.56,1.67.9,1.33,1.05,1.33,2.32-.16,3-.83.38-1.94.18-2.92.12-.18-.01-.48-.63-.43-.92.04-.28.42-.63.72-.73.52-.16,1.1-.15,1.66-.2,0-.13.01-.26.02-.39Z"/>
      <path class="cls-1" d="M424.22,442.02c1.19.94,2.76,1.31,2.31,2.94-.43,1.54-1.94,1.72-3.34,1.44-.41-.08-.72-.62-1.08-.95.38-.3.73-.67,1.15-.86.38-.17.85-.13,1.66-.22-.9-.58-1.52-.93-2.08-1.35-1.1-.82-1.05-1.86.09-2.38.97-.44,2.19-.38,3.3-.44.11,0,.41.68.34.98-.07.28-.49.56-.81.65-.49.15-1.03.14-1.54.2Z"/>
      <path class="cls-1" d="M411.76,464.8c-.22-.38-.56-.73-.63-1.14-.11-.65.1-1.37-.08-1.99-.17-.57-.66-1.04-1.03-1.55-.23-.32-.63-.6-.68-.94-.03-.25.36-.58.59-.85.4-.44.8-.89,1.25-1.28.26-.24.79-.61.89-.53.93.76,1.83,1.58,2.65,2.46.12.12-.16.93-.33.96-2.13.35-1.19,2.01-1.43,3.17-.12.58-.37,1.14-.56,1.71l-.64-.02Z"/>
      <path class="cls-1" d="M476.81,423.93c.93.5,1.56.67,1.93,1.07.41.45.91,1.21.78,1.65-.19.59-.93,1.02-1.48,1.46-.14.12-.45.11-.65.05-.77-.23-2.12-.39-2.19-.78-.28-1.46,1.09-.94,1.85-1.17.19-.06.34-.22.72-.47-.61-.2-1.14-.22-1.37-.49-.5-.59-1.3-1.49-1.14-1.95.24-.66,1.22-1.08,1.92-1.54.2-.13.59-.11.82,0,.57.26,1.09.6,1.63.92-.49.31-.96.65-1.47.92-.27.14-.6.15-1.34.33Z"/>
      <path class="cls-1" d="M432.5,442.43c.43.19.98.28,1.25.61.46.55,1.18,1.48,1,1.85-.34.67-1.23,1.09-1.95,1.53-.25.15-.71.14-.98.01-.52-.24-.98-.61-1.46-.92.48-.31.95-.66,1.45-.93.27-.14.61-.16,1.33-.34-.84-.41-1.38-.58-1.81-.9-1.41-1.03-1.35-2.49.23-3.11.82-.32,1.86-.16,2.8-.08.2.02.55.64.48.89-.1.33-.48.69-.83.82-.45.17-.98.13-1.47.17l-.02.41Z"/>
      <path class="cls-1" d="M494.9,425.75c-.52-.27-1.15-.43-1.53-.83-.41-.43-.95-1.29-.78-1.61.35-.65,1.14-1.06,1.76-1.55.07-.06.23-.04.33,0,.76.25,2.1.4,2.17.79.28,1.49-1.11.88-1.84,1.12-.15.05-.27.17-.61.41.46.19.84.24,1.05.46.56.56,1.33,1.13,1.47,1.81.1.45-.63,1.41-1.18,1.6-.84.29-1.85.17-2.78.1-.19-.02-.5-.61-.47-.9.03-.29.39-.68.69-.77.54-.17,1.14-.16,1.71-.23v-.39Z"/>
      <path class="cls-1" d="M459.42,423.71c-.24.99-.43,2.01-.76,2.98-.18.53-.61.98-.93,1.47-.32-.48-.71-.92-.93-1.44-.14-.33-.03-.77-.02-1.17.09-4.47-.61-3.74,3.86-3.77.53,0,1.31.37,1.53.8.22.43.04,1.54-.24,1.65-.53.21-1.27-.08-1.92-.16-.2-.12-.4-.24-.59-.36Z"/>
      <path class="cls-1" d="M404.6,423.75c-.25.98-.46,1.98-.79,2.94-.18.53-.58.99-.88,1.48-.31-.47-.84-.92-.89-1.41-.13-1.21,0-2.45-.06-3.68-.04-.93.29-1.35,1.24-1.32.89.03,1.8-.08,2.68.02.53.06,1.34.3,1.46.66.18.54.09,1.52-.28,1.81-.37.28-1.22-.06-1.86-.13l-.62-.36Z"/>
      <path class="cls-1" d="M446.93,439.89c.26.35.49.72.77,1.05.25.3.55.78.83.78.32,0,.62-.47.95-.7.45-.31.93-.6,1.4-.89.01.57.17,1.18.01,1.7-.38,1.29-.87,2.55-1.4,3.79-.14.33-.56.68-.9.75-.25.05-.73-.29-.85-.57-.66-1.47-1.29-2.95-1.8-4.48-.13-.38.26-.93.41-1.4.19,0,.38-.02.58-.02Z"/>
      <path class="cls-1" d="M423.43,423.87c-1.31.58-1.31,1.66-1.36,2.82-.02.5-.57.98-.87,1.46-.32-.49-.69-.95-.93-1.47-.13-.28-.03-.66-.02-1,.1-4.59-.79-3.87,4.21-3.91.43,0,1.13.39,1.24.73.16.52-.1,1.16-.19,1.75-.55-.08-1.11-.15-1.66-.24-.15-.03-.3-.12-.41-.16Z"/>
      <path class="cls-1" d="M523.51,441.87c0,1.12.08,2.24-.04,3.34-.04.42-.53.79-.82,1.19-.33-.36-.94-.7-.95-1.07-.09-2.34-.08-4.69,0-7.03.01-.34.55-.67.84-1,.33.35.9.68.94,1.06.12,1.16.05,2.34.05,3.51h0Z"/>
      <path class="cls-1" d="M457.73,461.49c0,.73.1,1.47-.04,2.17-.08.38-.56.67-.85,1.01-.32-.31-.89-.59-.91-.92-.1-1.5-.1-3.01,0-4.51.02-.33.6-.61.91-.92.3.33.78.63.85,1.01.14.7.04,1.44.04,2.17Z"/>
      <path class="cls-1" d="M423,479.74c0,.73.1,1.47-.04,2.17-.07.38-.54.68-.83,1.01-.32-.3-.91-.58-.93-.9-.1-1.5-.1-3.02,0-4.53.02-.33.59-.63.91-.94.3.33.77.63.85,1.01.14.7.04,1.45.04,2.17h0Z"/>
      <path class="cls-1" d="M386.48,461.55c0,.73.1,1.48-.04,2.18-.07.36-.57.63-.87.94-.31-.32-.86-.62-.88-.96-.09-1.51-.07-3.03.02-4.54.02-.3.59-.86.78-.81.38.1.9.49.97.84.15.76.05,1.56.05,2.35,0,0-.01,0-.02,0Z"/>
      <path class="cls-1" d="M441.26,443.25c0,.78.08,1.57-.04,2.33-.05.32-.54.78-.83.78-.3,0-.86-.46-.87-.74-.08-1.61-.07-3.22.02-4.83.01-.26.6-.69.9-.67.3.02.75.48.8.8.12.76.04,1.55.04,2.33,0,0-.01,0-.02,0Z"/>
      <path class="cls-1" d="M421.99,476.11c-.39-.68-.82-1.08-.76-1.4.06-.34.58-.59.9-.88.29.32.79.63.82.97.02.32-.46.67-.95,1.31Z"/>
      <path class="cls-1" d="M385.71,457.81c-.52-.65-1.02-1.01-.99-1.31.03-.34.51-.77.88-.88.2-.06.8.43.82.71.03.36-.33.75-.7,1.48Z"/>
      <path class="cls-1" d="M458.21,456.57c-.75.39-1.14.76-1.51.73-.29-.02-.82-.62-.76-.81.12-.37.55-.83.89-.87.32-.03.69.45,1.37.95Z"/>
      <path class="cls-1" d="M468.76,480.68c.4.7.78,1.07.76,1.43-.01.28-.58.81-.78.76-.37-.1-.86-.51-.91-.84-.04-.3.44-.68.92-1.34Z"/>
      <path class="cls-1" d="M441.74,438.14c-.67.47-1.05.94-1.34.89-.34-.06-.75-.53-.85-.9-.05-.19.48-.76.77-.78.35-.02.72.37,1.42.79Z"/>
      <path class="cls-1" d="M298.75,435.3c.3,1.57-.35,2.06-1.91,2.02-4.21-.09-8.42-.03-12.62-.03-.91,0-1.77.1-2.03-1.2-.06-.31-1.08-.61-1.66-.6-1.22.02-2.16-.11-1.98-1.83-.79,0-1.48.13-2.1-.04-.53-.14-1-.58-1.45-.95-.2-.16-.21-.57-.42-.68-1.45-.82-2.48-2.01-3.4-3.38-.25-.36-1.1-.33-1.68-.44-.71-.13-1.81.26-1.7-.97.03-.35,1.06-.89,1.6-.86,1.57.07,2.11-.52,2-2.06-.04-.52.46-1.08.72-1.62.39.36.79.72,1.17,1.1.19.19.33.6.49.6,1.36,0,1.19,1.09,1.4,1.9-1.67-.2-2.21.67-1.93,2.15.1.53.51,1,.78,1.5.33-.51.79-.99.95-1.55.19-.68.11-1.42.15-2.14.5.02,1.01.07,1.51.05,1.22-.06,2.39-.1,2.07,1.85,1.71,0,3.21,0,4.71,0,5.71,0,11.42-.01,17.14,0,.61,0,1.21.12,1.82.18.04.83,0,1.68.14,2.49.06.34.42.71.74.88.19.1.82-.15.83-.28.08-.93.15-1.89-.03-2.78-.04-.2-1.13-.18-1.74-.27-.07-1.49.46-2.34,2.13-2.09,1.21.18,1.79-.37,1.64-1.63-.04-.39-.08-.81.04-1.16.11-.31.44-.76.67-.76.35,0,.74.29,1.04.54.45.38.84.83,1.26,1.25.77.75,1.61,1.43,2.25,2.27.13.16-.54,1.33-.76,1.31-2.49-.27-3.36,1.66-4.56,3.16-.19.23-.52.35-.75.56-.36.32-.68.68-1.02,1.03-.25.26-.47.56-.75.77-.21.15-.71.13-.74.27-.65,2.5-2.57,1.39-4.07,1.47.23-.56.37-1.54.71-1.62,1.87-.44,1.12-1.83,1.09-2.83-.04-1.32-1.22-.76-1.95-.87-1.26-.19-1.71.41-1.6,1.62.06.72.05,1.45,0,2.17-.09,1.36.47,1.87,1.8,1.49ZM292.3,435.43c2.78,0,2.79,0,2.79-2.34,0-3.53.27-3.01-3.25-3.07-2.17-.04-2.17-.01-2.18,2.59q0,2.8,2.65,2.81ZM287.97,432.51c-.22-.66-.25-1.98-.86-2.36-1.59-.98-2.95.03-2.95,1.94,0,.39,0,.78.01,1.17.01,2.17.14,2.24,2.27,2.16,2.11-.07,1.02-1.68,1.52-2.92ZM282.6,432.1c-.14-.06-.27-.12-.41-.18.37-1.5-.18-2.07-1.63-1.92-.94.1-1.97.17-2.03-1.29,0-.18-.59-.44-.91-.45-.24,0-.7.38-.68.54.14,1.09-.98,2.69,1.14,3.07.22.04.49.44.54.71.36,1.82,1.79.93,2.71.94.42,0,.84-.92,1.27-1.42Z"/>
      <path class="cls-1" d="M302.13,406.2c1.46,0,2.58,0,3.7,0,.97.01,2.06-.27,2.27,1.29.03.25,1.11.47,1.72.52.85.08,1.75-.07,1.82,1.18,0,.15.12.38.23.42,2.91.92,1,3.29,1.47,4.94.05.19-.28.58-.53.74-1.34.88-2.31,2.58-4.33,2.02-.04-.01-.13.03-.15.07-.99,2.93-3.47,1.2-5.24,1.65-.42.11-.95-.11-1.33.06-.42.18-.73.62-1.09.95.35.26.66.65,1.05.75.53.14,1.23-.14,1.64.11.4.25.82,1.05.69,1.41-.27.74-2.99.45-3.43-.23-.31-.47-.95-.77-1.16-1.27-.63-1.5-3.02-1.84-2.57-4.05.08-.38-.27-1.2-.5-1.23-1.5-.2-1.32-1.26-1.31-2.26,0-1.01,0-2.02,0-3.03.01-1.02-.3-2.25,1.36-2.31,1.25-3.22,4.05-1,5.68-1.72ZM304.22,413.6c.23-1.34-.22-1.94-1.68-1.92-1.39.01-1.99.37-1.96,1.89.03,1.39.48,1.84,1.85,1.81,1.29-.03,2.1-.27,1.79-1.77Z"/>
      <path class="cls-1" d="M284.18,411.61c0,.98.06,1.78-.02,2.55-.04.39-.3,1.04-.52,1.07-1.38.16-1.35,1.08-1.31,2.08.04.88-.14,1.37-1.14,1.88-1.07.54-1.71,1.91-2.6,2.86-.29.31-.79.61-1.19.61-.74,0-1.49-.23-2.23-.36.2-.48.29-1.21.64-1.38.5-.25,1.23.01,1.81-.13.37-.09.64-.54.96-.83-.31-.3-.61-.85-.94-.87-1.57-.09-3.15.05-4.71-.09-.56-.05-1.06-.66-1.61-.98-.52-.3-1.04-.7-1.6-.79-.91-.15-2.01.19-2.11-1.27,0-.1-.09-.25-.16-.28-2.82-.84-1.15-3.16-1.53-4.79-.06-.27.42-.67.66-1,.02-.03.13,0,.16-.03,1.08-1.32,2.34-2.26,4.18-1.97.04,0,.11-.06.12-.1.57-2.56,2.61-1.41,4.06-1.53,1.84-.16,3.7-.04,5.56-.05.8,0,1.64-.09,1.71,1.07,0,.15.11.41.21.43,2.56.58,1.25,2.66,1.59,3.89ZM278.6,413.55c.24-1.36-.28-1.87-1.71-1.88-1.47,0-1.9.48-1.89,1.93.01,1.42.52,1.78,1.85,1.78,1.38,0,2.02-.4,1.75-1.83Z"/>
      <path class="cls-1" d="M289.54,424.53c-3.98-.09-3.56.68-3.59-3.73,0-.85-.06-1.62,1.11-1.93.37-.1.71-1.16.68-1.76-.07-1.46.57-1.81,1.89-1.81,1.3,0,2.04.28,1.85,1.78-.11.9-.08,1.81,1.19,2.02.25.04.45.55.6.87.09.19.03.44.03.66-.05,4.54.54,3.8-3.76,3.89Z"/>
      <path class="cls-1" d="M302.43,463.64c0,1.25,0,2.5,0,3.75-1.4.3-2.03-.28-1.84-1.68.22-1.61-.58-2.08-2.02-1.9-1.53.19-1.67-.72-1.7-1.95-.04-1.44.56-1.8,1.89-1.78,1.29.01,2.05.3,1.87,1.77-.16,1.33.13,2.26,1.79,1.8Z"/>
      <path class="cls-1" d="M300.85,456.5c-.3.64-.45,1.57-.84,1.68-.81.23-1.74.05-2.62-.02-.14-.01-.37-.34-.36-.5.03-.35.08-.83.31-1.01.88-.69,1.83-1.29,2.75-1.93.24.57.48,1.13.75,1.78Z"/>
      <path class="cls-1" d="M298.75,468.46c0,.61.1,1.25-.04,1.83-.08.31-.57.74-.86.73-.31,0-.84-.46-.86-.75-.09-1.28-.08-2.57.02-3.84.02-.28.57-.73.87-.73.3,0,.78.44.85.76.13.64.04,1.33.04,2,0,0,0,0-.01,0Z"/>
      <path class="cls-1" d="M301.12,451.01c-.58.76-.93,1.66-1.4,1.72-1.22.18-.98-.94-.96-1.65.03-.74-.39-1.94.96-1.82.45.04.81.98,1.39,1.74Z"/>
      <path class="cls-1" d="M275.01,449.8c.32-.82-.81-2.5,1.42-2.52,2.2-.01,2.22-.06,2.23,2.17,0,.39,0,.78.01,1.17.01,2.23-.43,2.63-2.67,2.19-.39-.08-.84-.62-.96-1.03-.16-.56-.04-1.21-.04-1.97Z"/>
      <path class="cls-4" d="M494.72,461.6c-.64.55-1.03.87-1.41,1.2-.28-.44-.8-.89-.78-1.32.01-.43.55-.85.86-1.27.36.38.72.75,1.33,1.4Z"/>
      <path class="cls-4" d="M542.63,423.37c.31.53.77,1.03.9,1.6.19.84-.21,1.35-1.18,1.34-.9,0-1.62-.24-1.42-1.29.11-.57.53-1.08.82-1.62.29,0,.59-.02.88-.03Z"/>
      <path class="cls-4" d="M442.63,425.09c-.65.53-1.05.85-1.44,1.17-.26-.46-.75-.93-.73-1.38.02-.42.56-.83.86-1.24.35.39.7.78,1.3,1.45Z"/>
      <path class="cls-4" d="M387.43,442.32c-.18.71-.34,1.43-.59,2.11-.02.04-.73-.17-1.12-.27.28-.72.57-1.44.85-2.16.29.11.58.21.87.32Z"/>
      <path class="cls-4" d="M503.47,460.65c-.22.7-.42,1.41-.7,2.08-.01.04-.72-.22-1.1-.33.31-.7.63-1.4.94-2.1.29.12.57.24.86.35Z"/>
      <path class="cls-4" d="M416.7,442.37c-.22.7-.44,1.4-.65,2.09-.38-.14-.76-.28-1.13-.41.3-.68.61-1.36.91-2.04.29.12.58.24.88.36Z"/>
      <path class="cls-4" d="M477.03,442.33c-.25.72-.49,1.45-.8,2.14-.02.04-.65-.19-1-.29.28-.73.57-1.45.85-2.18.31.11.63.22.94.33Z"/>
      <path class="cls-4" d="M515.34,442.25c-.2.74-.4,1.49-.61,2.23-.38-.13-.77-.26-1.15-.39.31-.71.63-1.43.94-2.14.27.1.54.19.82.29Z"/>
      <path class="cls-4" d="M513.91,424.88c-.62.63-.98,1-1.34,1.37-.3-.43-.84-.85-.85-1.28,0-.44.51-.88.79-1.32.38.33.76.67,1.39,1.23Z"/>
      <path class="cls-4" d="M387.83,424.85c-.6.66-.95,1.05-1.31,1.44-.31-.42-.87-.84-.88-1.27-.01-.45.49-.91.77-1.37.39.33.77.66,1.41,1.2Z"/>
      <path class="cls-4" d="M394.29,479.69c.59-.58.93-.91,1.26-1.24.31.48.79.93.86,1.44.05.36-.48.79-.75,1.19-.39-.4-.78-.8-1.37-1.4Z"/>
      <path class="cls-4" d="M495.64,443.18c-.63.62-1,.98-1.36,1.34-.3-.43-.84-.85-.84-1.28,0-.43.52-.87.81-1.3.37.33.75.67,1.39,1.25Z"/>
      <path class="cls-4" d="M451.79,424.86c-.61.64-.96,1.01-1.32,1.39-.3-.42-.84-.84-.85-1.27,0-.44.49-.89.77-1.34.38.33.76.67,1.4,1.22Z"/>
      <path class="cls-4" d="M292.3,435.43q-2.66,0-2.65-2.81c0-2.61,0-2.63,2.18-2.59,3.52.06,3.24-.46,3.25,3.07,0,2.35,0,2.35-2.79,2.34Z"/>
      <path class="cls-4" d="M287.97,432.51c-.5,1.24.58,2.85-1.52,2.92-2.13.07-2.26,0-2.27-2.16,0-.39-.01-.78-.01-1.17,0-1.91,1.36-2.92,2.95-1.94.61.38.64,1.7.86,2.36Z"/>
      <path class="cls-4" d="M282.6,432.1c-.42.5-.85,1.43-1.27,1.42-.92,0-2.34.89-2.71-.94-.05-.27-.32-.67-.54-.71-2.12-.39-1-1.98-1.14-3.07-.02-.16.44-.54.68-.54.32,0,.9.27.91.45.07,1.46,1.09,1.38,2.03,1.29,1.44-.15,2,.42,1.63,1.92.14.06.27.12.41.18Z"/>
      <path class="cls-4" d="M298.75,435.3c-1.32.38-1.89-.13-1.8-1.49.05-.72.06-1.45,0-2.17-.11-1.21.35-1.82,1.6-1.62.73.11,1.91-.44,1.95.87.03,1,.78,2.4-1.09,2.83-.35.08-.48,1.06-.71,1.62,0,0,.05-.05.05-.05Z"/>
      <path class="cls-4" d="M275.12,426.24c-.04.72.03,1.46-.15,2.14-.16.56-.62,1.04-.95,1.55-.27-.5-.68-.97-.78-1.5-.29-1.48.26-2.35,1.93-2.15,0,0-.04-.04-.04-.04Z"/>
      <path class="cls-4" d="M302.32,428.38c.61.08,1.69.07,1.74.27.19.89.11,1.86.03,2.78-.01.13-.64.38-.83.28-.32-.17-.69-.55-.74-.88-.14-.82-.11-1.66-.14-2.49,0,0-.05.05-.05.05Z"/>
      <path class="cls-4" d="M304.22,413.6c.31,1.5-.51,1.74-1.79,1.77-1.37.03-1.82-.42-1.85-1.81-.03-1.52.57-1.87,1.96-1.89,1.46-.01,1.91.59,1.68,1.92Z"/>
      <path class="cls-4" d="M278.6,413.55c.27,1.43-.37,1.83-1.75,1.83-1.34,0-1.84-.36-1.85-1.78-.01-1.45.42-1.94,1.89-1.93,1.43,0,1.95.52,1.71,1.88Z"/>
    </g>
    <rect class="cls-4" x="382.77" y="412.47" width="167.62" height="73.53"/>
    <text class="cls-19" transform="translate(393.21 426.4)"><tspan x="0" y="0">My name is SANS. </tspan><tspan x="0" y="21">No, its not a </tspan><tspan x="0" y="42">reference to </tspan><tspan x="0" y="63">the fonts name.</tspan></text>
    <g>
      <path class="cls-4" d="M59.68,595.01v-1.88h3.75v-1.88h-1.88v-1.88h3.75v1.88h3.75v-1.88h3.75v1.88h-1.88v1.88h3.75v1.88h-3.75v1.88h1.88v1.88h-3.75v-1.88h-3.75v1.88h-3.75v-1.88h1.88v-1.88h-3.75Z"/>
      <path class="cls-4" d="M99.19,593.14v-7.5h3.75v7.5h3.75v-7.5h3.75v7.5h-1.88v1.88h-1.88v7.5h-3.75v-7.5h-1.88v-1.88h-1.88Z"/>
      <path class="cls-4" d="M117.45,600.64v-9.38h1.88v-1.88h7.5v1.88h1.88v9.38h-1.88v1.88h-7.5v-1.88h-1.88ZM121.2,600.64h3.75v-9.38h-3.75v9.38Z"/>
      <path class="cls-4" d="M135.7,600.64v-11.25h3.75v11.25h3.75v-11.25h3.75v13.12h-9.38v-1.88h-1.88Z"/>
      <path class="cls-4" d="M164.71,600.64v-9.38h1.88v-1.88h5.62v-3.75h3.75v16.88h-9.38v-1.88h-1.88ZM168.46,600.64h3.75v-9.38h-3.75v9.38Z"/>
      <path class="cls-4" d="M182.97,600.64v-9.38h1.88v-1.88h7.5v1.88h1.88v9.38h-1.88v1.88h-7.5v-1.88h-1.88ZM186.72,600.64h3.75v-9.38h-3.75v9.38Z"/>
      <path class="cls-4" d="M201.22,602.51v-13.12h9.38v1.88h1.88v11.25h-3.75v-11.25h-3.75v11.25h-3.75Z"/>
      <path class="cls-4" d="M219.48,589.39v-3.75h3.75v5.62h-1.88v-1.88h-1.88ZM219.48,593.14v-1.88h1.88v1.88h-1.88Z"/>
      <path class="cls-4" d="M230.23,591.26v-1.88h3.75v-3.75h3.75v3.75h3.75v1.88h-3.75v9.38h3.75v1.88h-5.62v-1.88h-1.88v-9.38h-3.75Z"/>
      <path class="cls-4" d="M259.24,602.51v-16.88h3.75v9.38h1.88v-1.88h1.88v-3.75h3.75v3.75h-1.88v1.88h-1.88v1.88h1.88v1.88h1.88v3.75h-3.75v-3.75h-1.88v-1.88h-1.88v5.62h-3.75Z"/>
      <path class="cls-4" d="M277.5,602.51v-13.12h9.38v1.88h1.88v11.25h-3.75v-11.25h-3.75v11.25h-3.75Z"/>
      <path class="cls-4" d="M295.75,600.64v-9.38h1.88v-1.88h7.5v1.88h1.88v9.38h-1.88v1.88h-7.5v-1.88h-1.88ZM299.5,600.64h3.75v-9.38h-3.75v9.38Z"/>
      <path class="cls-4" d="M314.01,598.76v-9.38h3.75v9.38h1.88v3.75h-3.75v-3.75h-1.88ZM319.63,598.76v-7.5h1.88v7.5h-1.88ZM321.51,602.51v-3.75h1.88v-9.38h3.75v9.38h-1.88v3.75h-3.75Z"/>
      <path class="cls-4" d="M344.89,602.51v-1.88h3.75v-9.38h-3.75v-1.88h7.5v11.25h3.75v1.88h-11.25ZM348.64,587.51v-3.75h3.75v3.75h-3.75Z"/>
      <path class="cls-4" d="M363.15,593.14v-1.88h3.75v-3.75h1.88v-1.88h5.62v1.88h-3.75v3.75h3.75v1.88h-3.75v9.38h-3.75v-9.38h-3.75Z"/>
      <path class="cls-4" d="M392.16,602.51v-1.88h3.75v-13.12h-3.75v-1.88h7.5v15h3.75v1.88h-11.25Z"/>
      <path class="cls-4" d="M410.41,600.64v-3.75h1.88v-1.88h5.62v-3.75h-3.75v1.88h-3.75v-1.88h1.88v-1.88h7.5v1.88h1.88v11.25h-9.38v-1.88h-1.88ZM414.16,600.64h3.75v-3.75h-3.75v3.75Z"/>
      <path class="cls-4" d="M428.67,600.64v-11.25h3.75v11.25h3.75v-11.25h3.75v13.12h-9.38v-1.88h-1.88Z"/>
      <path class="cls-4" d="M446.92,604.39h3.75v1.88h3.75v-3.75h-5.62v-1.88h-1.88v-9.38h1.88v-1.88h9.38v16.88h-1.88v1.88h-7.5v-1.88h-1.88v-1.88ZM450.67,600.64h3.75v-9.38h-3.75v9.38Z"/>
      <path class="cls-4" d="M465.18,602.51v-16.88h3.75v3.75h5.62v1.88h1.88v11.25h-3.75v-11.25h-3.75v11.25h-3.75Z"/>
      <path class="cls-4" d="M494.19,600.64v-9.38h1.88v-1.88h7.5v1.88h1.88v9.38h-1.88v1.88h-7.5v-1.88h-1.88ZM497.94,600.64h3.75v-9.38h-3.75v9.38Z"/>
      <path class="cls-4" d="M512.44,602.51v-13.12h9.38v1.88h1.88v3.75h-3.75v-3.75h-3.75v11.25h-3.75Z"/>
    </g>
    <g>
      <path class="cls-4" d="M59.68,620.24v-1.88h3.75v-1.88h-1.88v-1.88h3.75v1.88h3.75v-1.88h3.75v1.88h-1.88v1.88h3.75v1.88h-3.75v1.88h1.88v1.88h-3.75v-1.88h-3.75v1.88h-3.75v-1.88h1.88v-1.88h-3.75Z"/>
      <path class="cls-4" d="M99.19,625.86v-9.38h1.88v-1.88h7.5v1.88h1.88v3.75h-3.75v-3.75h-3.75v9.38h3.75v-3.75h3.75v3.75h-1.88v1.88h-7.5v-1.88h-1.88Z"/>
      <path class="cls-4" d="M117.45,627.74v-13.12h9.38v1.88h1.88v3.75h-3.75v-3.75h-3.75v11.25h-3.75Z"/>
      <path class="cls-4" d="M135.7,625.86v-11.25h3.75v11.25h3.75v-11.25h3.75v16.88h-1.88v1.88h-7.5v-1.88h-1.88v-1.88h3.75v1.88h3.75v-3.75h-5.62v-1.88h-1.88Z"/>
      <path class="cls-4" d="M153.96,627.74v-3.75h3.75v3.75h-3.75Z"/>
      <path class="cls-4" d="M175.47,627.74v-3.75h3.75v3.75h-3.75Z"/>
      <path class="cls-4" d="M196.98,627.74v-3.75h3.75v3.75h-3.75Z"/>
    </g>
  </g>
</svg>